<?xml version="1.0" encoding="UTF-8"?>
<svg id="Layer_1" xmlns="http://www.w3.org/2000/svg" version="1.1" viewBox="0 0 120.1 15">
  <!-- Generator: Adobe Illustrator 30.1.0, SVG Export Plug-In . SVG Version: 2.1.1 Build 136)  -->
  <path d="M115.3,1.9c0,0,.5,0,1,.1.5,0,1,0,1.4,0s.8,0,1.7,0h.7V.3c0,0-1.9,0-1.9,0h-4.4c0,0-1.8-.1-1.8-.1v2.4c0,0,0,1.2,0,1.2v9.6c0,0-.2,1.2-.2,1.2h1.9c0-.1,2.5-.2,2.5-.2h1.9c0,.1,1.9.2,1.9.2v-1.8c-1.6.2-3.2.3-4.7.3v-5.3h2.9c0,.1,1.7,0,1.7,0v-.4c0,0,0-.4,0-.4v-1c0,0-4.7.2-4.7.2V1.9ZM29,5.7c-.1-.6-.3-1.1-.5-1.7s-.6-1-.9-1.4-.8-.8-1.3-1.2c-.7-.5-1.4-.9-2.2-1.1-.9-.2-1.8-.3-2.7-.3s-2.1.2-3.1.5c-1,.3-1.9.8-2.7,1.5s-1.4,1.5-1.8,2.5-.6,2-.6,3.1.2,2.1.5,3,.9,1.7,1.6,2.4c.7.7,1.6,1.2,2.6,1.6,1,.3,2,.5,3.1.5s2.1-.1,3.1-.5c1-.3,1.9-.8,2.7-1.5s1.4-1.5,1.9-2.5c.4-1,.6-2,.6-3.1v-.9c-.3-.3-.3-.6-.3-.9ZM25.6,8.2c0,.4-.1.8-.1,1.1-.1.7-.4,1.4-.7,2-.4.8-1,1.4-1.6,1.8s-1.4.6-2.2.6c-1.5,0-2.6-.6-3.4-1.8-.7-1-1-2.3-1-3.8s.1-1.7.2-2.4.4-1.5.7-2.1c.3-.6.8-1.2,1.4-1.6.4-.3.8-.5,1.1-.6s.8-.1,1.3-.1c1.5,0,2.6.6,3.4,1.9.7,1.1,1,2.4,1,3.9,0,.3,0,.7,0,1.1ZM41.1,11.2c-1-1.6-1.8-2.8-2.3-3.7,1-.2,1.8-.7,2.4-1.3s.9-1.5.9-2.4,0-.7,0-1-.2-.6-.3-.8c-.3-.5-.8-.9-1.4-1.3-.2-.1-.4-.2-.6-.3-.2,0-.4,0-.6,0-.5,0-1.2,0-2.1,0h-3.1c0,0-1.4,0-1.4,0v2.9c0,0,0,.9,0,.9v4.6c0,0,0,1.7,0,1.7v3.8c0,0-.2.4-.2.4h1.7c0-.1.7,0,.7,0h1v-1c0,0-.2-1.2-.2-1.2v-4.3c0,0,0,0,0,0h.2c0,0,.6,1.2.6,1.2l.7,1.1,2.4,4.3c.4,0,.7-.1,1-.1h1.7c0,.1,1.1.1,1.1.1l-.8-1.2-1.4-2.2ZM36.1,7.1h-.5V1.5h.6c.7,0,1.3.1,1.6.2.5.2.8.7.9,1.3,0,.2,0,.4,0,.5v.5c0,2.1-.9,3.1-2.7,3.1ZM95.3.4h-.9c0,0,0,.3,0,.3v1.3c0,0,.2,1.3.2,1.3v6.9l-3-3.3-3-3.3-3-3.3c-.2,0-.3,0-.5,0h-1.3c0,0,0,.9,0,.9v3.4c0,0,0,.8,0,2.1v3.1c0,.9,0,1.6,0,2.2s0,1.5-.2,2.6c.2,0,.3-.1.5-.1h1.3c0,.1.2.1.2.1v-2c0-.5,0-1.2,0-2-.5-.8-.5-1.3-.5-1.4v-4.8c0,0,2.4,2.4,2.4,2.4l2.3,2.5,2.3,2.6c.5.5,1.2,1.4,2.2,2.6.2,0,.3-.1.5-.1h1c0,.1.2.1.2.1V6.2c.1,0,.1-2.1.1-2.1l.2-1.7V.4c0,0-.4,0-.4,0h-.5ZM10.8.3h-2c0,0-1.3,0-1.3,0H0c0,0,.1.2.1.2v.7c0,.3,0,.6-.1.9l2-.3h1.8v12.7c0,0,.6,0,.6,0h1c0-.1.7,0,.7,0h1v-1.4c0,0,0-2,0-2V1.9c1.1,0,2.4,0,3.7.3-.1-.3-.1-.6-.1-1v-.4l.2-.5ZM68.2.3h-2c0,0-2.7,0-2.7,0h-1.7c0,0-1.7-.2-1.7-.2v2.4c0,0,0,1.2,0,1.2v9.6c0,0-.2,1.2-.2,1.2h1.9c0-.1,2.5-.2,2.5-.2h1.9c0,.1,1.9.2,1.9.2v-1.8c-1.6.2-3.2.3-4.7.3v-5.3h2.9c0,0,1.7.2,1.7.2v-.4c0,0,0-.4,0-.4v-1c0,0-4.7.2-4.7.2V1.8c.2,0,.6,0,1.1.1.5,0,1,.1,1.4.1s.8,0,1.7,0h.7V.3ZM108.4,8.5c-.3-.7-1-1.3-2-1.9l-2.7-1.4c-.9-.6-1.3-1.2-1.3-1.8s.2-1.1.6-1.4c.3-.3.5-.4.7-.5s.5-.1,1-.1,1.1.1,1.5.4c.4.3.7.7.9,1.3h.3l.4-1.3.2-.8h-.2c-.5-.4-1-.6-1.5-.7-.5,0-1-.2-1.6-.2s-1.2.1-1.8.2c-.5.2-1,.4-1.5.8-.6.5-1,.9-1.2,1.4-.2.5-.4,1.1-.4,1.9s0,1.2.4,1.8c.2.6.6,1,1.1,1.3l.8.6.9.5,1.3.6c0,.1.3.2.6.3,0,.1.3.2.5.4.3.3.5.5.6.8,0,.2.2.5.2.9,0,.7-.2,1.2-.7,1.6-.5.4-1.1.6-1.8.6s-1.4-.2-1.9-.6-.9-.9-1-1.6h-.4l-.2,1.2-.4,1.2c.5.3,1,.5,1.6.6s1.2.2,1.8.2,1.1,0,1.6-.1.9-.2,1.3-.4c.5-.2,1-.5,1.3-.8.4-.3.7-.7.9-1.2.2-.3.3-.6.4-1s.2-.7.2-1v-1c-.3-.3-.4-.6-.5-.8ZM79.7.3h-2c0,0-2.7,0-2.7,0h-1.7c0,0-1.7-.2-1.7-.2v2.4c0,0,0,1.2,0,1.2v9.6c0,0-.2,1.2-.2,1.2h1.9c0-.1,2.5-.2,2.5-.2h1.9c0,.1,1.9.2,1.9.2v-1.8c-1.6.2-3.2.3-4.7.3v-5.3h2.9c0,0,1.7.2,1.7.2v-.4c0,0,0-.4,0-.4v-1c0,0-4.7.2-4.7.2V1.8c.2,0,.6,0,1.1.1.5,0,1,.1,1.4.1s.8,0,1.7,0h.7V.3ZM55,11.2c-1-1.6-1.8-2.8-2.3-3.7,1-.2,1.8-.7,2.4-1.3s.9-1.5.9-2.4,0-.7,0-1-.2-.6-.3-.8c-.3-.5-.8-.9-1.4-1.3-.2-.1-.4-.2-.6-.3-.2,0-.4,0-.6,0-.5,0-1.2,0-2.1,0h-4.6v2.9c0,0,0,.9,0,.9v4.6c0,0,0,1.7,0,1.7v3.8c0,0-.2.4-.2.4h1.7c0-.1.7,0,.7,0h1v-1c0,0-.2-1.2-.2-1.2v-4.3c0,0,0,0,0,0h.2c0,0,.6,1.2.6,1.2l.7,1.1,2.4,4.3c.4,0,.7-.1,1-.1h1.7c0,.1,1.1.1,1.1.1l-.8-1.2-1.3-2.1ZM50,7.1h-.5V1.5h.6c.7,0,1.3.1,1.6.2.5.2.8.7.9,1.3,0,.2,0,.4,0,.5v.5c0,2.1-.9,3.1-2.7,3.1Z"/>
</svg>