<svg xmlns="http://www.w3.org/2000/svg" viewBox="0 0 6421.82 944.21"><defs><style>.cls-1,.cls-2,.cls-3,.cls-4{fill:#1a1a18;stroke:#1a1a18;}.cls-1,.cls-2{stroke-miterlimit:22.93;}.cls-1,.cls-2,.cls-3{stroke-width:0.22px;}.cls-1,.cls-3{fill-rule:evenodd;}.cls-3{stroke-linejoin:bevel;}.cls-4{font-size:173.32px;stroke-miterlimit:5;stroke-width:0.22px;font-family:ArialMT, Arial;}</style></defs><g id="Layer_2" data-name="Layer 2"><g id="_0" data-name="0"><path class="cls-1" d="M732.4,321.43c0-85.17,3-157.71,109.4-157.85l404.13-.53c71.69-.09,122.13,31.88,122.12,110.31V836.64c-2.17,63.83-35.12,105.61-98.75,106H850c-70.2,0-116-31.27-117.55-106l.13-209c.05-65.41,56.84-100.46,115.9-100.46H1269.8c39.25-3.58,45.06-29.61,46.81-62.59V272.09c0-54.7-36.53-57.63-79.89-57.63H850.65c-76.82,1.21-66.35,43.23-67.92,107Zm504.74,256.86c-79.72-.06-388,0-389.75,0-29.5,0-61.92,11.22-62.32,45.67-.33,28-.73,163.89-.77,207.65,0,42.57,25.13,60.94,66.48,60.94l382.58.18c48,0,82.85,1.19,82.85-59.87,0-2.3.35-161.65.25-199.29C1316.34,584.72,1276.69,578.32,1237.14,578.29Z"/><path class="cls-1" d="M5507.37,783.86H5456l0,57.66c1.77,70.88,52.46,99.72,105.07,100.74h424.14c56.65,0,104.34-35.08,104.35-95.67V651.74c0-94.54-35.85-125-130.66-125H5571.77c-26.46-.25-60.63-1.61-62.65-34.56l-1.79-29.35-.17-165.67c0-11,.21-22.06.21-33.21,0-32.2,21.3-46.38,50.43-49.89h417.84c38.38,0,64.53,7.22,64.53,52.92V321h49.47l-1.12-68.26c-.79-49-47.69-89.95-95.4-90l-23.18,0c-86.87,0-353,.05-410.46.07-54.32,0-102.77,40.62-102.86,97.16l0,232.35c3,55.88,55,85.71,105.17,85.75l261.21.2,139.36-.22c30.48.1,76.51-7.19,77.79,56.23v194c.34,42.63-15.43,65.76-60.09,65.66l-425.84-1c-26,0-45.59-20.82-46-46.36C5507.87,827.31,5507.37,783.86,5507.37,783.86Z"/><path class="cls-1" d="M4616.32,322.23h-52.11V270.49c0-59.08,39.88-108.08,100.21-107.79,54.83.28,413.66-.08,413.66-.08,119.28,1.88,155.11,101.34,84.83,175.44L4641.23,801.82c-37.08,32.95-26.92,91,24,91,5.59,0,419.42,1,428.16,1,40.14,0,57.08-24.51,57.08-62.49V783.87h48.35v48.61c-3.06,71.8-39.74,109.75-111.89,109.75l-401.66,0c-116.22.41-165.43-98.48-73.17-182.55,160.45-155.07,349.1-303.22,512.39-457.63,53.83-50.9-4.46-88.59-60.83-87.58-94.07,1.67-391.33-.46-393.3-.46-34.82,0-50,14.92-53.71,50.62Z"/><rect class="cls-2" x="5302.06" y="0.11" width="50.7" height="47.31"/><rect class="cls-2" x="5301.67" y="162.61" width="51.42" height="779.64"/><path class="cls-1" d="M3827.29,320.08c0-85.16,2.2-157.71,108.65-157.84l425.89-.56c62.87,5.26,100.37,47.11,100.36,110.34V835.29c-2.17,63.84-35.12,105.61-98.75,106H3944.09c-70.2,0-116-31.26-117.55-106l.13-202.08c0-68.37,49.21-107.43,115.06-107.43h422.21c39.25-3.58,45.61-29.53,47.36-62.51l-.06-197.92c-8.3-53-35.37-52.24-80.38-52.24H3944.79c-76.82,1.21-66.42,43-66.42,107Zm504.42,258.08c-79.73-.06-388,0-389.75,0-27.41,0-58.79,8.75-62.22,40.59-.28,2.59,0,180.67,0,219.24,0,49.77,40.17,54.41,78.54,54.43l369.69.17c48,0,83.36-.77,83.36-61.83,0-2.3.1-159.69,0-197.32C4411.17,584.6,4371.25,578.19,4331.71,578.16Z"/><path class="cls-1" d="M2104.9,942.25V269.61c-3.87-72.81-45.4-106.81-123.74-107-94.31-.22-367.14,0-386.1,0-68.6,0-123.75,31.4-123.75,107.38V942.25h51.42l-.06-673.17c0-31,16.28-51.66,47.38-55h422.24c40.7.83,56.66,10.24,61.37,55.82l0,672.39Z"/><path class="cls-1" d="M2259.35,162.61l-.17,296.28c0,43,5.75,67.83,56.7,67.82h422.63c39.53,0,51.26-30.18,51.26-66.08v-298h53.78V942.25h-53.63V631.32c0-34.4-22.25-53.18-54.94-53.18H2330.56c-41.63,1-71.15,4.57-71.25,54.4l-.13,309.72h-51.42V162.61Z"/><path class="cls-1" d="M3343.4,162.61,3725.91,550l-.11-281.88c.12-70.34-43.75-105.37-109.79-105.42C3556.91,162.61,3343.4,162.61,3343.4,162.61Z"/><path class="cls-1" d="M3274.6,162.61H3051.34c-100.64,3.11-107.13,73.25-107.13,151.57V835.3c3.36,84.06,47.79,105.71,125.29,107H3403l208.87-.08c67.58,0,111-30.8,114.09-102.44l.5-220.27Z"/><path class="cls-1" d="M633.61,261.39l-.21,208.35c0,35.58-8.29,53.81-31.2,81.19l-1.9,1.35c15.69,14.73,24.57,29.31,29,46.17,2.85,10.73,3.46,22.41,4.37,35.59V845.21c0,59.64-46.84,96.69-106.11,96.71L.11,944.1V161.68H530.39c51.75,0,103.27,45.26,103.22,99.71ZM49.83,578.14V892.87H526.52c18.8,0,30.61-4.65,39.16-11.6,13-10.54,16.71-27.82,16.69-53.56l-.09-191v-3.53c0-38.3-19.87-55-57.86-55Zm0-364.1V526.29H532.35c37.77,0,49.35-24.48,49.3-57.06l-.23-197.11c0-1.17,0-2.34,0-3.51,0-38-19.84-54.57-57.76-54.57Z"/><path class="cls-3" d="M6421.71,260.36a111,111,0,1,0-111,111,111,111,0,0,0,111-111Zm-15.3,0a95.7,95.7,0,1,1-95.7-95.7A95.7,95.7,0,0,1,6406.41,260.36Z"/><text class="cls-4" transform="translate(6249.44 323.41)">R</text></g></g></svg>