<svg xmlns="http://www.w3.org/2000/svg" viewBox="0 0 395.08 81.26"><path d="M4.05 75.61c0-3.21 2.43-5.66 5.64-5.66 2.02 0 3.84 1.03 4.92 2.74l-1.72 1.23c-.74-1.21-1.8-1.95-3.2-1.95-2 0-3.4 1.5-3.4 3.63s1.46 3.63 3.45 3.63c1.35 0 2.41-.62 3.32-1.89l1.61 1.16c-1.06 1.78-2.94 2.75-4.93 2.75-3.2 0-5.7-2.44-5.7-5.66m30.58-5.37v10.99h7.93v-1.89H36.8v-2.78h4.89v-1.89H36.8v-2.54h5.63v-1.89zm30.06 5.04h2.52c1.21 0 1.83-.74 1.83-1.57 0-.91-.62-1.63-1.83-1.63h-2.52zm-2.19 5.88V70.16h4.85c2.39 0 3.93 1.42 3.93 3.53 0 1.4-.77 2.55-2.05 3.1l2.48 4.36h-2.4l-2.24-4h-2.39v3.99h-2.19Zm34.84-8.75 1.92 4.81H95.4zm-1.26-2.28L91.64 81.1h2.33l.82-2.15h5.1l.81 2.15h2.33l-4.44-10.99h-2.51Zm36.28-.05-3.54 7.31-3.54-7.31h-2.32v10.99h2.19v-6.74l2.96 6h1.42l2.96-6v6.74h2.18V70.06zM154.6 70h2.19v10.99h-2.19zm22.12 5.61c0-3.21 2.43-5.66 5.64-5.66 2.02 0 3.84 1.03 4.92 2.74l-1.72 1.23c-.74-1.21-1.8-1.95-3.2-1.95-2 0-3.4 1.5-3.4 3.63s1.46 3.63 3.46 3.63c1.35 0 2.41-.62 3.32-1.89l1.61 1.16c-1.06 1.78-2.94 2.75-4.93 2.75-3.2 0-5.7-2.44-5.7-5.66m49.14-5.48v1.94h3.44v9.05h2.17v-9.05h3.43v-1.94zm30.27 0h2.19V81.1h-2.19zm23.42 0V81.1h8.1v-1.89h-5.91v-9.1zm29.33 0V81.1h7.93v-1.89h-5.75v-2.78h4.89v-1.89h-4.89v-2.53h5.63v-1.9zm30.77 7.39c.52 1.06 1.5 1.79 2.82 1.79 1.05 0 1.88-.51 1.88-1.22s-.82-1.12-2.13-1.53c-2.11-.66-3.83-1.31-3.83-3.43s2.03-3.16 3.89-3.16c1.99 0 3.37 1.16 4.06 2.39l-1.68 1.2c-.48-.8-1.27-1.61-2.44-1.61-.85 0-1.6.45-1.6 1.17 0 .88.8 1.01 2.18 1.5 2.06.73 3.78 1.29 3.78 3.45s-2.18 3.21-4.14 3.21c-2.12 0-3.75-1.11-4.41-2.6l1.61-1.16ZM26.09 21.85v8.48h17.1C41.29 38 34.34 43.7 26.09 43.7c-9.93 0-17.96-8.25-17.6-18.26.32-9.07 7.81-16.59 16.88-16.96 4.97-.2 9.68 1.65 13.18 5.14l6-6C39.04 2.14 31.51-.6 23.64.11 11.44 1.22 1.48 11.01.16 23.19c-1.7 15.68 10.59 28.99 25.94 28.99 6.78 0 12.97-2.6 17.61-6.86v6.39h8.48V21.84H26.1ZM116.37.52v51.14h34.32v-8.31h-26.01V29.74h23.33v-8.31h-23.33V8.83h26.01V.52zm107.12 29.45 6.92-20.27 6.92 20.27zm21.27 21.75h8.78L236.06.52h-11.3l-17.48 51.2h8.78l4.59-13.44h19.52zm-51.01-25.77c-3.28-2.46-7.69-4.05-12.43-4.48-3.57-.32-6.43-.67-8.09-1.92-1.38-1.04-2.03-2.43-2.03-4.36 0-3.76 3.94-6.71 9.4-6.71 2.92 0 5.39.86 7.37 2.35 1.42 1.07 2.31 2.39 2.52 3.73l8.55-1.28c-.51-3.56-2.77-6.64-5.96-9.05-3.47-2.62-7.35-3.89-12.14-3.89s-9.29 1.3-12.64 3.96c-3.6 2.86-5.58 6.62-5.58 10.89 0 4.62 1.87 8.46 5.4 11.13 3.73 2.81 8.56 3.24 12.44 3.59 3.14.28 6.1 1.31 8.1 2.81.96.72 2.56 2.23 2.56 4.32 0 6.18-7.87 6.66-10.28 6.66-2.92 0-5.74-.85-7.72-2.34-.96-.72-2.56-2.23-2.56-4.32v-.96h-8.48v.96c0 4.22 2.17 8.26 5.95 11.1 3.47 2.61 8.02 4.04 12.81 4.04 11.22 0 18.76-6.08 18.76-15.14 0-4.22-2.17-8.26-5.95-11.1m139.46 25.8-.02-42.57h17.09V.52h-42.83v8.65h17.09l-.01 42.57zM93.72 16.32c0 4.74-3.22 7.57-8.6 7.57H74.64V8.82h10.48c2.81 0 4.99.69 6.48 2.05 1.41 1.29 2.12 3.12 2.12 5.45m-.38 14.4c6.14-2.46 9.48-7.79 9.48-14.4 0-9.59-6.63-15.79-17.33-15.79H66.16v51.12h8.5V32.1h9.15l11.26 19.55h10.52L93.33 30.71Zm197.84-14.4c0 4.74-3.21 7.57-8.6 7.57H272.1V8.82h10.48c2.81 0 4.99.69 6.48 2.05 1.41 1.29 2.12 3.12 2.12 5.45m-.38 14.4c6.14-2.46 9.48-7.79 9.48-14.4 0-9.59-6.63-15.79-17.33-15.79h-19.33v51.12h8.5V32.1h9.15l11.26 19.55h10.52l-12.26-20.94Z"/><path fill="#009391" d="M353.1 51.66h13.38V38.28H353.1zm17.63-17.63h24.35V9.68h-24.35z"/></svg>