<?xml version="1.0" encoding="UTF-8"?>
<svg id="Layer_1" xmlns="http://www.w3.org/2000/svg" version="1.1" viewBox="0 0 131 56">
  <!-- Generator: Adobe Illustrator 30.1.0, SVG Export Plug-In . SVG Version: 2.1.1 Build 136)  -->
  <path d="M5.3,24.8l9.9-6.7L6.3,5.8l102,10.5,16.6,9.4-9.3,8.4H12l-6.7-9.2ZM0,2.1l11,15.2L1.1,24l9.4,13h106.2l13.2-12-20.7-11.7L0,2.1Z"/>
  <path d="M15,51.4v-9.9h1.2c.5,0,1,0,1.3.1.4,0,.8.2,1.1.4.4.2.6.5.8.8.2.4.3.8.3,1.4s0,.7-.3,1.1c-.2.4-.4.6-.8.8h0c.6.1,1,.4,1.4.9.4.5.6,1,.6,1.6,0,.9-.3,1.6-1,2.1-.7.5-1.5.7-2.4.7h-2.3ZM16.3,42.5v3.3h.3c.7,0,1.2-.1,1.6-.3.4-.2.5-.7.5-1.3s-.2-1.1-.5-1.3c-.4-.2-.9-.3-1.5-.3h-.3ZM16.3,46.8v3.4h.9c1.5,0,2.3-.6,2.3-1.8s0-.6-.2-.8c-.2-.2-.4-.4-.6-.5-.3-.1-.5-.2-.8-.2-.3,0-.6,0-.9,0h-.8Z"/>
  <path d="M21.9,45.2h1.2v3.4c0,.6.1,1,.3,1.4.2.3.6.5,1.1.5s.9-.2,1.1-.5c.2-.3.3-.8.3-1.4v-3.4h1.2v3.5c0,.9-.2,1.6-.6,2.1-.4.5-1.1.8-1.9.8s-1.5-.3-1.9-.8c-.4-.5-.6-1.2-.6-2.1v-3.5Z"/>
  <path d="M30.2,42.4c0,.2,0,.4-.2.6-.2.2-.3.2-.6.2s-.4,0-.6-.2c-.2-.2-.2-.3-.2-.6s0-.4.2-.6c.2-.2.3-.2.6-.2s.4,0,.6.2c.2.2.2.4.2.6ZM30,51.4h-1.2v-6.2h1.2v6.2Z"/>
  <path d="M33.1,39.9h-1.2v11.4h1.2v-11.4Z"/>
  <path d="M39.3,51.4v-1h0c-.2.4-.5.6-.9.9-.4.2-.7.3-1.2.3-.9,0-1.6-.3-2.1-1-.5-.6-.8-1.4-.8-2.4s.3-1.6.8-2.3c.5-.6,1.2-1,2.1-1s1.6.4,2.1,1.2h0v-6.3h1.2v11.4h-1.2ZM37.4,50.5c.6,0,1.1-.2,1.4-.6.4-.4.5-1,.5-1.6s-.2-1.1-.5-1.6c-.4-.4-.8-.6-1.4-.6s-1,.2-1.4.7c-.4.4-.5,1-.5,1.6s.2,1.1.5,1.6c.3.4.8.7,1.4.7Z"/>
  <path d="M43.6,42.4c0,.2,0,.4-.2.6-.2.2-.3.2-.6.2s-.4,0-.6-.2c-.2-.2-.2-.3-.2-.6s0-.4.2-.6c.2-.2.3-.2.6-.2s.4,0,.6.2c.2.2.2.4.2.6ZM43.4,51.4h-1.2v-6.2h1.2v6.2Z"/>
  <path d="M46.5,45.2v.8h0c.2-.3.4-.6.8-.7.3-.2.7-.3,1.1-.3.8,0,1.4.2,1.7.7.3.5.5,1.1.5,2v3.7h-1.2v-3.5c0-.6,0-1-.3-1.3-.2-.3-.5-.4-1.1-.4s-.5,0-.6,0c-.2,0-.3.2-.4.3-.1.1-.2.3-.3.4,0,.1-.1.3-.1.5,0,.2,0,.4,0,.5,0,.1,0,.3,0,.6v2.8h-1.2v-6.2h1.2Z"/>
  <path d="M57.8,45.2v6c0,1.2-.2,2.1-.6,2.7-.4.6-1.2.9-2.3.9s-1.6-.3-2.1-.7c-.5-.5-.8-1.2-.8-2h1.2c0,.5.2,1,.5,1.3.3.3.8.5,1.3.5s1.1-.2,1.4-.6c.2-.4.4-1,.4-1.7v-1.2h0c-.2.4-.5.6-.9.9-.4.2-.7.3-1.2.3-.9,0-1.6-.3-2.1-1-.5-.6-.8-1.4-.8-2.4s.3-1.6.8-2.3c.5-.6,1.2-1,2.1-1s1.6.4,2.1,1.2h0v-1.1h1.2ZM54.7,50.5c.6,0,1.1-.2,1.4-.6.4-.4.5-1,.5-1.6s-.2-1.1-.5-1.6c-.4-.4-.8-.6-1.4-.6s-1,.2-1.4.7c-.4.4-.5,1-.5,1.6s.2,1.1.5,1.6c.3.4.8.7,1.4.7Z"/>
  <path d="M64.4,46.3v5.1h-1.2v-5.1h-.6v-1.1h.6v-2.4h1.2v2.4h1.1v1.1h-1.1Z"/>
  <path d="M66.5,46c.6-.6,1.4-.9,2.3-.9s1.7.3,2.3.9c.6.6.9,1.4.9,2.3s-.3,1.7-.9,2.3c-.6.6-1.4.9-2.3.9s-1.7-.3-2.3-.9c-.6-.6-.9-1.4-.9-2.3s.3-1.7.9-2.3ZM66.8,48.3c0,.6.2,1.1.6,1.5.4.4.9.6,1.5.6s1.1-.2,1.5-.6c.4-.4.6-.9.6-1.5s-.2-1.1-.6-1.5c-.4-.4-.9-.6-1.5-.6s-1.1.2-1.5.6c-.4.4-.6.9-.6,1.5Z"/>
  <path d="M78.8,45.2v6c0,1.2-.2,2.1-.6,2.7-.4.6-1.2.9-2.3.9s-1.6-.3-2.1-.7c-.5-.5-.8-1.2-.8-2h1.2c0,.5.2,1,.5,1.3.3.3.8.5,1.3.5s1.1-.2,1.4-.6c.2-.4.4-1,.4-1.7v-1.2h0c-.2.4-.5.6-.9.9-.4.2-.7.3-1.2.3-.9,0-1.6-.3-2.1-1-.5-.6-.8-1.4-.8-2.4s.3-1.6.8-2.3c.5-.6,1.2-1,2.1-1s1.6.4,2.1,1.2h0v-1.1h1.2ZM75.8,50.5c.6,0,1.1-.2,1.4-.6.4-.4.5-1,.5-1.6s-.2-1.1-.5-1.6c-.4-.4-.8-.6-1.4-.6s-1,.2-1.4.7c-.4.4-.5,1-.5,1.6s.2,1.1.5,1.6c.3.4.8.7,1.4.7Z"/>
  <path d="M85.7,48.5h-4.6c0,.6.2,1,.5,1.4.3.4.8.6,1.3.6s.8-.1,1-.3c.3-.2.5-.5.8-.9l1,.6c-.3.5-.7.9-1.2,1.2-.5.3-1,.4-1.6.4-.9,0-1.6-.3-2.2-.9-.5-.6-.8-1.4-.8-2.3s.3-1.8.8-2.4c.5-.6,1.2-.9,2.2-.9s1.6.3,2.1.9c.5.6.7,1.4.7,2.4v.2ZM81.1,47.6h3.4c0-.5-.3-.8-.5-1.1-.3-.3-.7-.4-1.1-.4s-.8.1-1.1.4c-.3.3-.5.7-.6,1.1Z"/>
  <path d="M88,46.3v5.1h-1.2v-5.1h-.6v-1.1h.6v-2.4h1.2v2.4h1.1v1.1h-1.1Z"/>
  <path d="M89.8,39.9h1.2v6.1h0c.2-.3.4-.6.8-.7.3-.2.7-.3,1.1-.3.8,0,1.4.2,1.7.7.3.5.5,1.1.5,2v3.7h-1.2v-3.5c0-.6,0-1-.3-1.3-.2-.3-.5-.4-1.1-.4s-.5,0-.6,0c-.2,0-.3.2-.4.3-.1.1-.2.3-.3.4,0,.1-.1.3-.1.5,0,.2,0,.4,0,.5,0,.1,0,.3,0,.6v2.8h-1.2v-11.4Z"/>
  <path d="M101.9,48.5h-4.6c0,.6.2,1,.5,1.4.3.4.8.6,1.3.6s.8-.1,1-.3c.3-.2.5-.5.8-.9l1,.6c-.3.5-.7.9-1.2,1.2-.5.3-1,.4-1.6.4-.9,0-1.6-.3-2.2-.9-.5-.6-.8-1.4-.8-2.3s.3-1.8.8-2.4c.5-.6,1.2-.9,2.2-.9s1.6.3,2.1.9c.5.6.7,1.4.7,2.4v.2ZM97.4,47.6h3.4c0-.5-.3-.8-.5-1.1-.3-.3-.7-.4-1.1-.4s-.8.1-1.1.4c-.3.3-.5.7-.6,1.1Z"/>
  <path d="M104.2,45.2v1h0c.1-.4.4-.7.7-.9.3-.2.6-.3,1-.3s.6.1,1,.3l-.5,1.1c-.2-.2-.4-.2-.7-.2s-.6,0-.8.2c-.2.1-.3.3-.4.5,0,.2-.2.5-.2.7,0,.2,0,.5,0,.8v3h-1.2v-6.2h1.2Z"/>
  <path d="M91,18.2c-1.2-.6-2.7-.8-4.1-.8-2.8,0-5.9,1.4-6.4,4.7-.4,2.4,1,3.1,2.3,3.5,1.4.4,2.8.4,2.7,1.5-.1.7-1,1-1.6,1-1.1,0-2.6-.7-3.4-1.3l-2.2,3.3c1.4,1,3.2,1.5,5,1.5,3,0,6.3-1.4,6.9-4.9.4-2.4-1.1-3.5-3.2-3.9-.6-.1-2-.3-1.9-1.2.1-.7,1.1-.9,1.6-.9.8,0,1.7.3,2.4.6l2-3Z"/>
  <path d="M99.6,21.4c1.9,0,2.7,1.4,2.5,3-.3,1.7-1.5,2.9-3.4,2.9s-2.8-1.3-2.5-2.9c.3-1.6,1.6-3,3.4-3ZM107.6,17.8h-4.6l-.2,1.3c-.8-1.2-2.3-1.7-3.8-1.7-3.8,0-7,3.2-7.6,7-.6,3.8,1.6,7,5.5,7s3.2-.6,4.2-1.9h0l-.2,1.5h4.6l2.1-13.1Z"/>
  <path d="M53.7,17.8h-4.6l-2.1,13.1h4.6l1.1-6.8c.3-1.6,1-3.1,2.9-3.1s1.7,2.2,1.5,3.5l-1,6.4h4.6l1.3-8.1c.5-3.2-.5-5.5-4-5.5s-3.2.5-4.5,2.1h0l.3-1.7Z"/>
  <path d="M72.3,17.3c-4.2,0-8.2,2.5-8.9,7-.7,4.5,2.6,7,6.7,7s8.2-2.5,8.9-7c.7-4.5-2.5-7-6.7-7ZM71.7,21.4c1.9,0,2.7,1.4,2.5,3-.3,1.7-1.5,2.9-3.4,2.9s-2.8-1.3-2.5-2.9c.3-1.6,1.6-3,3.4-3Z"/>
  <path d="M38.9,21.4c1.9,0,2.7,1.4,2.5,3-.3,1.7-1.5,2.9-3.4,2.9s-2.8-1.3-2.5-2.9c.3-1.6,1.6-3,3.4-3ZM46.8,17.8h-4.6l-.2,1.3c-.8-1.2-2.3-1.7-3.8-1.7-3.8,0-7,3.2-7.6,7-.6,3.8,1.6,7,5.5,7s3.2-.6,4.2-1.9h0l-.2,1.5h4.6l2.1-13.1Z"/>
  <path d="M23.4,30.9h4.6l3.3-21.3h-4.6l-1.5,9.4c-.8-1.2-2.3-1.7-3.8-1.7-3.8,0-7,3.2-7.6,7-.6,3.8,1.6,7,5.5,7s3.2-.6,4.2-1.9h0l-.2,1.5ZM22.1,21.4c1.9,0,2.7,1.4,2.5,3-.3,1.7-1.5,2.9-3.4,2.9s-2.8-1.3-2.5-2.9c.3-1.6,1.6-3,3.4-3Z"/>
</svg>