<?xml version="1.0" encoding="UTF-8"?> <svg xmlns="http://www.w3.org/2000/svg" id="Layer_1" version="1.1" viewBox="0 0 243.8 56.7"><defs><style> .st0 { fill: #cc0605; } .st1 { fill: #20214f; } </style></defs><g id="Grupo_129"><path id="Caminho_1" class="st0" d="M64.5,17.8l-.4.4-25.1,24.8L14.2,18.2l-.4-.4H0l2.2,2.2,35.9,35.8.9.9.9-.9,36.1-35.6,2.2-2.2h-3.1s-10.1-.2-10.1-.2h-.6Z"></path><path id="Caminho_2" class="st1" d="M38.9,38.5l.5-.5,18.4-18.1.5-.5-.5-.5-8.4-8.3-.5-.5-.5.5-4.8,4.7-.5.5.5.5,2.9,2.8-7.9,7.8-7.5-7.4,13.1-13,.5-.5-.5-.5L39,.5l-.5-.5-.5.5-18.4,18.1-.5.5.5.5,14.7,14.5,4.1,4,.5.5Z"></path><path id="Caminho_3" class="st1" d="M105.5,11.1l-7.5,23.7h-2.7l-7.5-23.7h3.9l4.9,16.4,5-16.4h3.9ZM120.7,11.1v3.7h-9.4v5.5h7.5v3.7h-7.5v7.3h9.4v3.7h-13.1V11.1h13.1ZM139.4,18.4c0,1-.2,2.1-.5,3-.3.8-.8,1.4-1.3,2-.5.5-1.1.9-1.7,1.3-.6.3-1.2.5-1.8.7l5.4,9.5h-4.3l-5.2-9.1h-1.8v9.1h-3.7V11.1h7.5c1.3,0,2.6.4,3.8.9.5.2,1,.5,1.4.9.5.4.9.8,1.2,1.3.4.6.7,1.2.8,1.8.2.8.3,1.6.3,2.4M128.2,22.1h4c.1,0,.3,0,.5-.1.2,0,.5-.1.7-.2.3-.1.5-.2.8-.4.3-.2.5-.4.7-.6.2-.3.4-.6.5-1,.1-.4.2-.9.2-1.4,0-.4,0-.8-.2-1.2,0-.3-.2-.6-.4-.9-.2-.2-.4-.5-.6-.6-.2-.2-.4-.3-.7-.4-.6-.3-1.2-.4-1.9-.5h-3.7v7.3ZM151.2,11.1c1.3,0,2.6.4,3.8.9.5.2,1,.5,1.4.9.5.4.9.8,1.2,1.3.4.6.7,1.2.8,1.8.2.8.3,1.6.3,2.4v9.2c0,1.3-.4,2.5-.9,3.7-.2.5-.5.9-.9,1.3-.4.5-.8.9-1.3,1.2-.6.4-1.2.6-1.9.8-.8.2-1.6.3-2.5.3h-7.5V11.1h7.5ZM154.9,18.4c0-.4,0-.8-.2-1.2,0-.3-.2-.6-.4-.9-.2-.2-.4-.5-.6-.6-.2-.2-.4-.3-.7-.4-.6-.3-1.2-.4-1.9-.5h-3.7v16.5h3.7c.4,0,.8,0,1.2-.2.3,0,.6-.2.9-.4.2-.2.5-.4.7-.6.2-.2.3-.4.4-.7.3-.6.4-1.2.5-1.8v-9.2ZM177.9,34.8h-3.9l-1-3.7h-8.1l-1,3.7h-3.9l6.5-23.8h4.9l6.5,23.8ZM172.1,27.5l-3.1-12.8-3.1,12.8h6.1ZM182.7,17.3c0,.4.2.9.5,1.2.4.4.8.8,1.2,1.2.5.4,1.1.8,1.7,1.2l2,1.3c.7.4,1.3.9,2,1.4.6.4,1.2,1,1.7,1.5.5.5.9,1.1,1.2,1.7.3.6.5,1.3.5,1.9,0,1.8-.8,3.5-2.2,4.6-.7.5-1.5.9-2.4,1.2-.9.3-1.9.4-2.9.4h-5.6v-3.6h5.6c.6,0,1.1-.1,1.7-.3.2,0,.4-.2.6-.3.2-.1.4-.3.5-.5.2-.2.3-.4.4-.6,0-.3.1-.6.1-.8,0-.4-.2-.9-.5-1.2-.4-.4-.8-.8-1.2-1.2-.5-.4-1.1-.8-1.7-1.2-.6-.4-1.3-.8-2-1.3s-1.3-.9-2-1.4c-.6-.4-1.2-1-1.7-1.5-.5-.5-.9-1.1-1.2-1.7-.3-.6-.5-1.3-.5-1.9,0-.9.2-1.8.6-2.7.4-.8.9-1.4,1.6-2,.7-.5,1.5-1,2.4-1.2.9-.3,1.9-.4,2.9-.4h5.6v3.7h-5.6c-.6,0-1.1.1-1.7.3-.2,0-.4.2-.6.3-.2.1-.4.3-.6.5-.2.2-.3.4-.4.6-.1.3-.2.6-.1.9M211.4,18.4h-3.7c0-.6-.2-1.3-.5-1.8-.1-.2-.3-.5-.4-.7-.2-.2-.4-.4-.7-.6-.3-.2-.6-.3-.9-.4-.8-.2-1.7-.2-2.5,0-.3,0-.6.2-.9.4-.3.2-.5.4-.7.6-.2.2-.3.4-.4.7-.3.6-.4,1.2-.5,1.8v9.2c0,.6.2,1.3.5,1.8.1.2.3.5.4.7.2.2.4.4.7.6.3.2.6.3.9.4.8.2,1.7.2,2.5,0,.3,0,.6-.2.9-.4.3-.2.5-.4.7-.6.2-.2.3-.4.4-.7.3-.6.4-1.2.5-1.8h3.7c0,1.3-.4,2.5-.9,3.7-.2.5-.5.9-.9,1.3-.4.5-.8.9-1.3,1.2-.6.4-1.2.6-1.9.8-1.6.4-3.3.4-4.9,0-.7-.2-1.3-.5-1.9-.8-.5-.3-1-.7-1.3-1.2-.3-.4-.6-.9-.9-1.3-.6-1.1-.9-2.4-.9-3.7v-9.2c0-1.3.4-2.5.9-3.7.2-.5.5-.9.9-1.4.4-.5.8-.8,1.3-1.2.6-.4,1.2-.6,1.9-.8,1.6-.4,3.3-.4,4.9,0,.7.2,1.3.5,1.9.8.5.3.9.7,1.3,1.2.3.4.6.9.9,1.4.6,1.1.9,2.4.9,3.7M230.1,34.8h-3.9l-1-3.7h-8.1l-1,3.7h-3.8l6.5-23.8h4.9l6.5,23.8ZM224.2,27.5l-3.1-12.8-3.1,12.8h6.1Z"></path><path id="Caminho_4" class="st1" d="M95.6,52.8c-.5,0-.9,0-1.3-.2-.4-.1-.7-.3-1-.4-.3-.2-.5-.4-.7-.6-.2-.2-.4-.5-.5-.7-.3-.6-.5-1.3-.5-2v-5.4c0-.7.2-1.4.5-2,.1-.3.3-.5.5-.7.2-.2.5-.5.7-.6.3-.2.7-.3,1-.4.4-.1.9-.2,1.3-.2.5,0,1,0,1.5.2.4.1.8.3,1.1.6.3.2.5.5.7.8.2.3.3.5.4.8,0,.2.2.5.2.8,0,.2,0,.4,0,.5h-1.6c0-.4-.1-.7-.3-1.1,0-.1-.2-.3-.3-.4-.1-.1-.3-.2-.4-.3-.2-.1-.4-.2-.6-.2-.3,0-.5,0-.8,0-.3,0-.6,0-.8.1-.2,0-.4.2-.6.3-.2.1-.3.2-.4.4-.1.1-.2.3-.3.4-.2.4-.3.8-.3,1.2v5.4c0,.4.1.8.3,1.2,0,.2.2.3.3.5.1.2.3.3.4.4.2.1.4.2.6.3.3,0,.5.1.8.1.4,0,.7,0,1.1-.2.6-.2,1-.7,1.3-1.3.1-.3.2-.6.2-.9v-1.4h-2.2v-1.5h3.8v6.9h-.6l-1.3-1.7c0,.1-.1.2-.2.4-.1.2-.2.4-.4.6-.2.2-.4.4-.6.5-.3.1-.6.2-.9.2M110.8,43.5c0,.6,0,1.1-.3,1.6-.2.4-.5.8-.8,1.1-.3.3-.7.5-1.1.7-.4.2-.7.3-1.1.4.2.4.4.8.7,1.3s.5.9.8,1.4.6,1,.8,1.4.5.9.8,1.3h-1.8l-3-5.4h-1.5v5.4h-1.6v-13.3h4.1c.7,0,1.4.2,2,.5.3.1.5.3.8.5.3.2.5.4.7.7.2.3.4.6.5,1,.1.4.2.9.2,1.3M104.2,46h2.6c.1,0,.2,0,.3,0,.2,0,.3,0,.5-.1.2,0,.4-.2.5-.3.2-.1.3-.3.5-.4.2-.2.3-.4.4-.7,0-.3.1-.6.1-.9,0-.3,0-.5-.1-.8,0-.2-.2-.4-.3-.6-.1-.2-.2-.3-.4-.4-.1-.1-.3-.2-.5-.3-.4-.2-.8-.3-1.2-.3h-2.5v4.9ZM116.8,39.5c.5,0,.9,0,1.3.2.4.1.7.3,1,.4.3.2.5.4.7.6.2.2.4.5.5.7.3.6.5,1.3.5,2v5.4c0,.7-.2,1.4-.5,2-.1.3-.3.5-.5.7-.2.3-.5.5-.7.6-.3.2-.7.3-1,.4-.9.2-1.8.2-2.7,0-.4-.1-.7-.3-1-.4-.3-.2-.5-.4-.7-.6-.2-.2-.4-.5-.5-.7-.3-.6-.5-1.3-.5-2v-5.4c0-.7.2-1.4.5-2,.1-.3.3-.5.5-.7.2-.2.5-.5.7-.6.3-.2.7-.3,1-.4.4-.1.9-.2,1.3-.2M119.3,43.5c0-.4-.1-.8-.3-1.2,0-.2-.2-.3-.3-.4-.1-.2-.3-.3-.4-.4-.2-.1-.4-.2-.6-.3-.5-.1-1.1-.1-1.7,0-.2,0-.4.2-.6.3-.2.1-.3.2-.4.4-.1.1-.2.3-.3.4-.2.4-.3.8-.3,1.2v5.4c0,.4.1.8.3,1.2,0,.2.2.3.3.5.1.2.3.3.4.4.2.1.4.2.6.3.5.1,1.1.1,1.7,0,.2,0,.4-.2.6-.3.2-.1.3-.2.4-.4.1-.1.2-.3.3-.5.2-.4.3-.8.3-1.2v-5.4ZM131.5,39.5v9.3c0,.7-.2,1.4-.5,2-.1.3-.3.5-.5.7-.2.3-.5.5-.7.6-.3.2-.7.3-1,.4-.9.2-1.8.2-2.7,0-.4-.1-.7-.3-1-.4-.3-.2-.5-.4-.7-.6-.2-.2-.4-.5-.5-.7-.3-.6-.5-1.3-.5-2v-9.3h1.6v9.3c0,.4.1.8.3,1.2,0,.2.2.3.3.5.1.2.3.3.4.4.2.1.4.2.6.3.5.1,1.1.1,1.7,0,.2,0,.4-.2.6-.3.2-.1.3-.2.4-.4.1-.1.2-.3.3-.5.2-.4.3-.8.3-1.2v-9.3h1.6ZM138.5,39.5c.7,0,1.4.2,2,.5.3.1.5.3.8.5.3.2.5.4.7.7.2.3.4.6.5,1,.2.9.2,1.8,0,2.6-.1.4-.3.7-.5,1-.2.3-.4.5-.7.7-.2.2-.5.3-.8.5-.6.3-1.3.5-2,.5h-2.5v5.4h-1.6v-13.3h4.1ZM138.5,46c.4,0,.9-.1,1.2-.3.2,0,.3-.2.5-.3.2-.1.3-.3.4-.4.1-.2.2-.4.3-.6.1-.5.1-1.1,0-1.6,0-.2-.2-.4-.3-.6-.1-.2-.2-.3-.4-.4-.1-.1-.3-.2-.5-.3-.4-.2-.8-.3-1.2-.3h-2.5v4.9h2.5Z"></path><g id="Grupo_1"><path id="Caminho_5" class="st1" d="M241.2,4.7c.8.5,1.5,1.1,1.9,1.9.9,1.7.9,3.7,0,5.4-.5.8-1.1,1.5-1.9,1.9-1.7.9-3.7.9-5.4,0-.8-.5-1.5-1.1-1.9-1.9-.9-1.7-.9-3.7,0-5.4.5-.8,1.1-1.5,1.9-1.9,1.7-.9,3.7-.9,5.4,0h0ZM241,13.6c1.5-.9,2.4-2.5,2.4-4.3,0-.9-.2-1.7-.6-2.5-.4-.7-1-1.3-1.7-1.8-1.6-.9-3.4-.9-5,0-.7.4-1.3,1-1.8,1.8-.9,1.5-.9,3.4,0,4.9.4.7,1,1.4,1.8,1.8,1.5.9,3.4.9,5,0h0ZM240.8,9.5c-.3.3-.6.6-1.1.7l1.5,2.3h-.6l-1.4-2.1c-.1,0-.3,0-.4,0h-1.7v2.1h-.6v-6.2h2.3c.6,0,1.2.2,1.7.6.4.4.7.9.6,1.5,0,.4-.1.9-.4,1.2h0ZM240.1,9.4c.3-.3.5-.7.5-1.1,0-.4-.2-.8-.5-1.1-.4-.3-.9-.4-1.4-.4h-1.7v3h1.7c.5,0,1-.1,1.4-.4h0Z"></path></g></g></svg> 