<svg xmlns="http://www.w3.org/2000/svg" viewBox="0 0 566.9 227.6"><path d="M0 217.1c0 6.1 3.9 10.5 9.9 10.5s9.1-3.4 9.8-8.8l-5.7-.7c-.4 2.9-1.8 4.5-4.1 4.5s-4.2-2.1-4.2-6v-4.9c0-3.9 1.4-6 4.2-6s3.6 1.5 4.1 4.5l5.7-.7c-.7-5.4-4.4-8.8-9.8-8.8S0 204.9 0 211.1zm49.6 10.1h17v-5.1H55.4v-5.8H65v-5.1h-9.7v-5.1h11.2V201H49.6v26.1Zm55.8-9.4 4.7 9.3h6.4l-5.7-10.2c2.9-1.3 4.7-4.3 4.5-7.5 0-5.9-4.4-8.4-8.8-8.4h-9.9v26.1h5.7v-9.3h3Zm4.2-8.3c0 2.4-1.6 3.3-3.7 3.3h-3.5v-6.6h3.5c2.1 0 3.7.9 3.7 3.3m49.1 12.8 1.4 4.8h6l-8.5-26.1h-6l-8.5 26.1h6l1.4-4.8h8.1Zm-6.7-4.7 2.7-9.2 2.7 9.2zm52.9 3.2h4l4.3-8.1v14.5h5.8v-26.1h-4.8l-7.2 13.5-7.2-13.5H195v26.1h5.7v-14.5zm51.1-19.7h-5.7v26.1h5.7zm30.6 16c0 6.1 3.9 10.5 9.9 10.5s9.1-3.4 9.8-8.8l-5.7-.7c-.5 2.9-1.8 4.5-4.1 4.5s-4.2-2.1-4.2-6v-4.9c0-3.9 1.4-6 4.2-6s3.6 1.5 4.1 4.5l5.7-.7c-.7-5.4-4.4-8.8-9.8-8.8s-9.9 4.4-9.9 10.5v6Zm83.4-11h6.7v21h5.7v-21h6.7V201H370zm54.1-5.1h-5.7v26.1h5.7zm31.4 26.1h17V222h-11.2v-21h-5.7v26.1Zm46 0h16.9V222h-11.2v-5.7h9.7v-5.1h-9.7v-5.1h11.2V201h-16.9v26Zm65.4-7.6c0-4.2-2.4-6.8-7.5-7.8l-2.1-.4c-2.3-.5-3.4-1.5-3.4-2.9 0-1.5 1.2-2.7 2.7-2.7h.3c1.9 0 3.6 1.3 3.9 3.2l5.5-.7c-.9-4.8-4.5-7.6-9.4-7.6s-8.8 3.7-8.8 7.8 2.6 6.8 7.6 7.8l2 .4c2.4.5 3.4 1.4 3.4 3s-1.4 2.8-3.5 2.8c-2.3 0-4.3-1.5-4.7-3.8l-5.5.7c.9 4.9 5.3 8.3 10.2 8.1 5.8 0 9.2-3.2 9.2-8m-366.5-151c-3-.1-5.8 1.5-7.2 4.2-2-3.8-6.8-5.3-10.6-3.3-2.5 1.3-4.1 3.9-4.2 6.8 0 4.1 2.5 6.8 6.5 10.8 4.1 4.1 6.4 7.2 7.4 10.1l.9 2.6.9-2.5c1-2.9 3.3-6 7.4-10.1s6.5-6.7 6.5-10.8c0-4.2-3.4-7.7-7.6-7.7"/><path d="M251 80.6c.2 32-25.6 58.2-57.6 58.4s-58.2-25.6-58.4-57.6 25.6-58.2 57.6-58.4h.3c31.9 0 57.8 25.7 57.9 57.6M193.1 0c-44.5 0-80.5 36.1-80.5 80.6s36.1 80.5 80.6 80.5 80.5-36.1 80.5-80.5S237.6 0 193.2 0M.2 4.9 0 160.1v1h105.3v-22.9H23.5l.2-133.3zM362 129.5 314.5 4.9h-24.6l59.4 156.2H375L434.1 4.9h-24.6zM461.1 4.9v156.2h105.3v-23h-82.3V94.5h71.8v-23h-71.8V27.9h82.3v-23z"/></svg>