<svg xmlns="http://www.w3.org/2000/svg" xmlns:xlink="http://www.w3.org/1999/xlink" width="400" zoomAndPan="magnify" viewBox="0 0 300 187.499995" height="250" preserveAspectRatio="xMidYMid meet" version="1.0"><defs><clipPath id="1dca968710"><path d="M 17.453125 41.429688 L 282.652344 41.429688 L 282.652344 145.570312 L 17.453125 145.570312 Z M 17.453125 41.429688 " clip-rule="nonzero"/></clipPath><clipPath id="f964ea4f95"><path d="M 282.546875 93.503906 C 282.546875 59.3125 256.527344 41.832031 232.179688 41.832031 C 207.953125 41.832031 181.816406 59.253906 181.816406 93.503906 C 181.816406 127.707031 207.835938 145.171875 232.179688 145.171875 C 256.632812 145.171875 282.546875 127.707031 282.546875 93.503906 M 266.542969 93.503906 C 266.542969 116.019531 252.121094 130.3125 232.179688 130.3125 C 212.347656 130.3125 197.820312 116.019531 197.820312 93.503906 C 197.820312 70.984375 212.464844 56.699219 232.179688 56.699219 C 252.015625 56.699219 266.542969 70.992188 266.542969 93.503906 M 166.027344 87.960938 C 158.535156 79.296875 153.539062 74.519531 153.539062 68 C 153.539062 59.261719 161.023438 56.535156 165.679688 56.535156 C 171.941406 56.535156 176.316406 58.859375 176.316406 58.859375 L 176.316406 43.898438 C 176.316406 43.898438 172.195312 41.832031 166.34375 41.832031 C 144.421875 41.832031 137.199219 56.679688 137.199219 68 C 137.199219 79.527344 143.265625 85.609375 149.957031 94.273438 C 157.648438 104.230469 164.953125 109.953125 164.953125 118.273438 C 164.953125 125.230469 160.5625 130.5 150.929688 130.5 C 145.914062 130.5 137.472656 126.171875 137.472656 126.171875 L 137.472656 141.300781 C 137.472656 141.300781 146.503906 145.164062 153.589844 145.164062 C 171.054688 145.164062 181.5625 133.511719 181.5625 118.523438 C 181.5625 108.011719 175.964844 99.4375 166.027344 87.953125 M 116.933594 143.863281 L 133.054688 143.863281 L 133.054688 43.136719 L 116.933594 43.136719 Z M 75.390625 143.863281 L 114.132812 43.136719 L 96.925781 43.136719 L 65.789062 126.222656 L 34.660156 43.136719 L 17.453125 43.136719 L 56.195312 143.867188 Z M 75.390625 143.863281 " clip-rule="nonzero"/></clipPath><clipPath id="eb3258b143"><path d="M 0.453125 0.648438 L 265.605469 0.648438 L 265.605469 104.292969 L 0.453125 104.292969 Z M 0.453125 0.648438 " clip-rule="nonzero"/></clipPath><clipPath id="24e7d4c1bc"><path d="M 265.546875 52.503906 C 265.546875 18.3125 239.527344 0.832031 215.179688 0.832031 C 190.953125 0.832031 164.816406 18.253906 164.816406 52.503906 C 164.816406 86.707031 190.835938 104.171875 215.179688 104.171875 C 239.632812 104.171875 265.546875 86.707031 265.546875 52.503906 M 249.542969 52.503906 C 249.542969 75.019531 235.121094 89.3125 215.179688 89.3125 C 195.347656 89.3125 180.820312 75.019531 180.820312 52.503906 C 180.820312 29.984375 195.464844 15.699219 215.179688 15.699219 C 235.015625 15.699219 249.542969 29.992188 249.542969 52.503906 M 149.027344 46.960938 C 141.535156 38.296875 136.539062 33.519531 136.539062 27 C 136.539062 18.261719 144.023438 15.535156 148.679688 15.535156 C 154.941406 15.535156 159.316406 17.859375 159.316406 17.859375 L 159.316406 2.898438 C 159.316406 2.898438 155.195312 0.832031 149.34375 0.832031 C 127.421875 0.832031 120.199219 15.679688 120.199219 27 C 120.199219 38.527344 126.265625 44.609375 132.957031 53.273438 C 140.648438 63.230469 147.953125 68.953125 147.953125 77.273438 C 147.953125 84.230469 143.5625 89.5 133.929688 89.5 C 128.914062 89.5 120.472656 85.171875 120.472656 85.171875 L 120.472656 100.300781 C 120.472656 100.300781 129.503906 104.164062 136.589844 104.164062 C 154.054688 104.164062 164.5625 92.511719 164.5625 77.523438 C 164.5625 67.011719 158.964844 58.4375 149.027344 46.953125 M 99.933594 102.863281 L 116.054688 102.863281 L 116.054688 2.136719 L 99.933594 2.136719 Z M 58.390625 102.863281 L 97.132812 2.136719 L 79.925781 2.136719 L 48.789062 85.222656 L 17.660156 2.136719 L 0.453125 2.136719 L 39.195312 102.867188 Z M 58.390625 102.863281 " clip-rule="nonzero"/></clipPath><clipPath id="e23e511925"><rect x="0" width="266" y="0" height="105"/></clipPath></defs><g clip-path="url(#1dca968710)"><g clip-path="url(#f964ea4f95)"><g transform="matrix(1, 0, 0, 1, 17, 41)"><g clip-path="url(#e23e511925)"><g clip-path="url(#eb3258b143)"><g clip-path="url(#24e7d4c1bc)"><path fill="#231f20" d="M 0.453125 0.832031 L 265.652344 0.832031 L 265.652344 104.167969 L 0.453125 104.167969 Z M 0.453125 0.832031 " fill-opacity="1" fill-rule="nonzero"/></g></g></g></g></g></g></svg>