<svg xmlns="http://www.w3.org/2000/svg" viewBox="0 0 731.37 758.69"><g stroke="#000" stroke-miterlimit="10"><path d="m690.8 688.63 33.9-57.6h-6.6l-31 53.1-30.9-53.1h-7l34.5 57.8-39 68.1h6.8l35.6-63.7 36.6 63.7h6.8zm-241.3-57.4h5v120.2h69.3v5h-74.3z"/><path d="M454.4 751.93v-120.8h-5v125.7H524v-5h-69.6zm-99.5-115.3h65.3c-12.7 34.8-25.1 68.8-37.8 103.9-.7-1.9-31-85.4-39.7-109.4h-6.4c15 40.9 31.4 85.9 46.1 126.1 15.2-41.9 30.5-83.7 45.9-126H355v5.4zm271.6-5.6h-67.9v5h62.6c0 26 .2 51.3 0 76.7 0 5.7-1.4 11.5-2.9 17-3.2 11.6-10.6 19.8-22.5 22.2h-21.7c-11.8-2.3-19.2-10.6-22.3-22.1-1.5-5.5-2.8-11.3-2.9-17-.3-24.9 0-81.7 0-81.7h-5.3c0 1-.2 56.1.5 82.7.2 7 2 14.3 4.2 21 4.1 12.4 13 19.7 25.9 22l21.7.2c13-2.3 22-9.7 26.2-22.2 2.2-6.8 4.1-14 4.2-21 .7-26.6.6-81.7.5-82.7h-.1zm-533.4 0h-5.9c-.5.6-7.6 15.6-10.5 21.9-9.8 21-19.6 41.9-29.8 63.8-1.3-2.6-39.9-85-40.7-85.7H.9c-.1 6-.3 66.1-.4 106.9v18.8h5.8v-112.9c13.4 28.5 26.7 56.9 40.5 86.4 13.8-29.4 27.1-57.7 40.3-86v107H15.7v5.6h77.5v-125.9h-.1zm114.8 62.9c0 47.9-17 63-40.8 63s-41.1-14.1-41.1-63.2 20-62.5 41.4-62.5 40.5 15.1 40.5 62.7Zm-76.6-.2c0 43.8 14.4 59.1 35.5 59.1s35.8-19.7 35.8-58.8-10.46-58.42-35.63-57.71c-23.69.68-33.72 13.37-35.67 57.41Zm187.1.2c0 47.9-17 63-40.8 63s-41.1-14.1-41.1-63.2 20-62.5 41.4-62.5 40.5 15.1 40.5 62.7Zm-76.6-.2c0 43.8 14.4 59.1 35.5 59.1s35.8-19.7 35.8-58.8-11-58.33-34.97-57.93c-23.11.38-34.73 12.16-36.33 57.63Z"/></g><path d="M226.34 87.53h17.29v378h-17.29zm260.93 0h17.29v378h-17.29zM306.06 448.09h181.21v17.45H306.06zM268.41 163.4h17.48l80.64 180.46 80.01-180.46 17.48-.02-97.49 222.53z"/><path d="M592.04 553.57H138.96V0h453.07v553.57Zm-436.78-16.3h420.46V16.31H155.26z"/></svg>