<svg xmlns="http://www.w3.org/2000/svg" width="220" height="70" viewBox="0 0 217 70"><path d="M128.336 58.61c0 2.93 1.996 4.644 4.617 4.644 2.598 0 4.61-1.723 4.61-4.645 0-2.933-2.012-4.648-4.61-4.648-2.621 0-4.617 1.715-4.617 4.648m7.844 0c0 2.168-1.293 3.614-3.235 3.614-1.945 0-3.234-1.453-3.234-3.614 0-2.172 1.289-3.617 3.234-3.617 1.942 0 3.235 1.446 3.235 3.617m-17.317-3.492c1.543 0 2.075.742 2.075 1.88 0 1.163-.532 1.89-2.075 1.89h-2.117v-3.77Zm-3.425-1.015v8.996h1.316v-3.203h2.36c2.284 0 3.156-1.172 3.156-2.899 0-1.695-.872-2.894-3.157-2.894Zm-14.66 5.109c0 2.898 1.542 4.016 3.784 4.016 2.231 0 3.774-1.118 3.774-4.016V54.1h-1.3v5.11c0 2.223-.966 3.012-2.474 3.012-1.519 0-2.484-.79-2.484-3.012V54.1h-1.3Zm-10.325-4.094c1.524 0 2.074.649 2.074 1.66 0 .989-.543 1.657-2.074 1.657h-2.121v-3.317Zm-3.426-1.015v8.996h1.317v-3.684h2.273l2.344 3.684h1.414l-2.512-3.817c1.41-.316 1.996-1.261 1.996-2.492 0-1.566-.879-2.687-3.156-2.687Zm-13.273 4.523c0-2.223 1.445-3.648 3.512-3.648.898 0 1.847.289 2.363.586l.2-.989c-.54-.297-1.474-.613-2.657-.613-2.746 0-4.805 1.723-4.805 4.648 0 2.938 2.082 4.645 4.828 4.645 1.387 0 2.23-.34 2.774-.676v-4.234h-1.211v3.605c-.375.16-.918.297-1.457.297-2.059 0-3.547-1.398-3.547-3.621M50.223 28.91h-9.09l4.394-11.586Zm6.668 8.235L47.617 14h-4.191l-9.262 23.145h3.492l2.535-5.766h10.95l2.289 5.766ZM67.129 14h-3.492L72.5 37.145h4.191L85.511 14H82.06l-7.47 19.82Zm27.523 0h3.383v23.145h-3.383Zm16.594 11.629c0-5.723 3.711-9.379 9.047-9.379 2.316 0 4.738.734 6.062 1.512l.516-2.547c-1.394-.77-3.781-1.582-6.832-1.582-7.059 0-12.36 4.426-12.36 11.96 0 7.571 5.372 11.962 12.43 11.962 3.563 0 5.735-.883 7.13-1.73V25.128h-3.122v9.058c-.957.403-2.351.778-3.758.778-5.289 0-9.113-3.613-9.113-9.336m40.473-4.733c0 2.546-1.395 4.253-5.336 4.253h-5.446v-8.53h5.446c3.941 0 5.336 1.66 5.336 4.277m3.414 0c0-4.024-2.274-6.903-8.121-6.903h-9.45v23.145h3.383v-9.489h5.848l6.031 9.489h3.633l-6.465-9.82c3.633-.805 5.14-3.239 5.14-6.422m13.806 5.425h11.328v-2.582h-11.328v-7.12h12.722V14h-16.094v23.145h16.094v-2.618h-12.722Zm21.316 9.457c1.91 1.106 4.742 1.735 7.574 1.735 4.672 0 9.195-1.883 9.195-6.606 0-7.98-12.945-5.539-12.945-11.113 0-2.434 2.469-3.438 5.223-3.438 2.168 0 4.738.594 6.394 1.582l.551-2.546c-1.84-1.067-4.594-1.73-7.312-1.73-4.235 0-8.305 1.765-8.305 6.378 0 8.129 12.941 5.836 12.941 11.074 0 2.582-2.832 3.73-5.996 3.73-2.351 0-4.922-.55-6.797-1.628Zm0 0"/><path fill="#ff3600" d="m174.055 5.59-2.493 5.015h2.786l2.937-5.015Zm0 0"/><path d="M12.742 26.32v-9.703h5.445c3.973 0 5.333 1.914 5.333 4.836 0 2.996-1.36 4.875-5.332 4.875m8.75-4.875c0-4.355-2.239-7.453-8.122-7.453H9.36v12.004H1.691v2.582H9.36v8.559h3.383V28.91h6.067c5.89 0 8.128-3.027 8.128-7.457m187.222-5.328c0-.516-.297-.855-1.117-.855h-1.027v2.957h.504V17h.507l.723 1.227h.512l-.746-1.286c.441-.082.644-.414.644-.816m-.515.012c0 .27-.157.453-.602.453h-.531v-.918h.531c.445.008.602.2.602.465"/><path d="M216.078 13.684h-6.043v6.09h6.043Zm-.558 5.539h-4.942v-4.989h4.942Zm0 0"/></svg>