<svg class="icon" xmlns="http://www.w3.org/2000/svg"><defs><svg id="icon-logo" xmlns="http://www.w3.org/2000/svg" viewBox="0 0 120 34"><path d="M37.974 33.68h-6.391C31.497 33.37 31.5.365 31.595.01h.465c4.886 0 9.772.03 14.657-.01 3.731-.031 7.437 2.162 9.227 5.578.875 1.667 1.315 3.44 1.217 5.311-.196 3.712-1.952 6.535-5.066 8.526-.534.342-1.126.595-1.691.89-.117.061-.235.12-.38.194 2.395 4.39 4.775 8.752 7.18 13.166-.187.007-.305.018-.423.018-1.89 0-3.781-.005-5.671.006-.267 0-.413-.081-.54-.322-2.874-5.454-5.757-10.905-8.637-16.356-.055-.105-.1-.215-.164-.353.562 0 1.075.003 1.589 0a12.898 12.898 0 0 0 2.591-.286c2.076-.443 3.391-1.73 4.07-3.695 1.007-2.91-.337-5.745-2.412-7.076a5.4 5.4 0 0 0-2.52-.832c-2.256-.186-4.515-.075-6.773-.106-.083 0-.168.017-.289.03-.009.186-.026.366-.026.545v27.958c0 .155-.015.31-.025.482ZM98.298 24.185c.382.313.744.602 1.097.901.941.795 1.953 1.483 3.049 2.045 1.031.528 2.101.947 3.256 1.11 1.555.218 3.088.162 4.556-.453 1.874-.786 2.675-2.27 2.704-4.128.014-.844-.311-1.578-.891-2.194-.579-.614-1.268-1.077-2.011-1.467-1.08-.568-2.24-.929-3.391-1.31-1.829-.609-3.622-1.307-5.328-2.207a14.961 14.961 0 0 1-2.779-1.856c-1.782-1.524-2.83-3.412-2.926-5.793-.084-2.083.492-3.919 1.933-5.456.87-.928 1.92-1.594 3.079-2.1 1.371-.597 2.806-.944 4.289-1.114a21.782 21.782 0 0 1 3.05-.132c3.769.098 7.094 1.372 9.989 3.776.178.148.351.303.545.47-1.311 1.33-2.567 2.605-3.85 3.91-.138-.11-.272-.21-.401-.318-1.113-.916-2.296-1.716-3.65-2.246-1.844-.721-3.707-.75-5.586-.173a4.234 4.234 0 0 0-1.753 1.045c-1.276 1.254-1.27 3.465-.029 4.725.525.533 1.137.929 1.803 1.253 1.086.526 2.235.876 3.381 1.237 1.754.552 3.492 1.148 5.194 1.848 1.242.511 2.424 1.131 3.486 1.959 1.337 1.042 2.344 2.33 2.67 4.02.72 3.735-.349 6.857-3.35 9.255-1.481 1.183-3.196 1.904-5.019 2.37-1.919.491-3.87.634-5.843.45-2.253-.21-4.356-.915-6.356-1.954a19.176 19.176 0 0 1-2.713-1.692c-.817-.614-1.515-1.352-2.24-2.098L98.3 24.19l-.001-.005ZM16.243 33.681H9.782c-.025-.674-.01-1.343-.013-2.012-.003-.662 0-1.325 0-1.986V5.512c-.198-.01-.365-.028-.53-.028H.022c-.04-.483-.015-.933-.02-1.38-.004-.454 0-.907 0-1.361V.077C.315 0 25.425-.023 25.913.044c.085.268.102 4.976.011 5.414-.156.009-.324.026-.49.026l-8.656.001c-.168 0-.337.014-.535.023v28.173ZM62.787 6.328V.602c.411-.101.821-.232 1.24-.3.688-.111 1.382-.21 2.076-.268.93-.077 1.83.135 2.715.398 1.21.359 2.41.752 3.624 1.096 1.454.413 2.942.545 4.446.4 1.165-.11 2.29-.411 3.403-.756C81.24.878 82.19.588 83.14.304c1.277-.38 2.57-.34 3.86-.096.564.105 1.121.253 1.69.385V6.32c-.105-.012-.199-.015-.288-.035a17.05 17.05 0 0 0-2.989-.382c-1.364-.053-2.683.22-3.982.61-.94.282-1.876.572-2.807.874-1.931.625-3.855.619-5.786-.005a107.875 107.875 0 0 0-3.303-1.011c-1.16-.335-2.348-.524-3.56-.467-.97.046-1.93.169-2.878.375-.092.02-.186.029-.309.047v.002ZM88.688 32.157c-.451-.08-.872-.154-1.29-.23-2.047-.377-4.053-.206-6.029.428a147.37 147.37 0 0 1-3.127.964c-1.782.53-3.558.462-5.327-.09-1.099-.342-2.2-.678-3.303-1.015-2.058-.63-4.134-.602-6.222-.17-.188.04-.379.074-.565.11-.075-.289-.098-5.187-.026-5.722.286-.076.587-.18.897-.234.735-.128 1.472-.261 2.215-.334 1.093-.105 2.144.154 3.182.469 1.115.339 2.223.692 3.342 1.016 1.454.42 2.943.534 4.447.402 1.165-.101 2.29-.407 3.405-.754.878-.273 1.754-.548 2.632-.816 1.357-.416 2.733-.415 4.113-.145.55.108 1.096.25 1.656.378v5.743ZM88.693 19.247c-.369-.068-.716-.13-1.061-.197-2.168-.416-4.294-.262-6.39.425-1.037.341-2.079.662-3.127.961-1.71.489-3.419.423-5.114-.096-1.17-.36-2.342-.722-3.516-1.072-1.95-.58-3.92-.557-5.9-.173-.216.041-.432.086-.649.127-.035.006-.07.005-.133.008-.014-.081-.04-.16-.04-.24-.002-1.716-.003-3.433 0-5.15 0-.302.003-.31.274-.386 1.319-.372 2.66-.631 4.031-.467.714.084 1.419.273 2.114.468 1.144.32 2.27.703 3.416 1.024 1.25.35 2.53.473 3.827.4 1.194-.067 2.351-.334 3.493-.68 1.115-.336 2.225-.686 3.342-1.01 1.18-.342 2.378-.303 3.574-.095.494.086.982.21 1.47.323.13.029.254.078.39.123v5.708l-.001-.001Z"></path></svg></defs><use href="#icon-logo"></use></svg>