<svg width="75" height="72" viewBox="0 0 75 72" fill="none" xmlns="http://www.w3.org/2000/svg">
<path fill-rule="evenodd" clip-rule="evenodd" d="M13.0801 22.7775C13.2489 22.7775 13.4018 22.6823 13.473 22.5334C18.4331 12.0387 29.2834 5.25825 41.1161 5.25825C52.9477 5.25825 63.7981 12.0387 68.7582 22.5334C68.8282 22.6823 68.9822 22.7775 69.1511 22.7775H74.0772C74.2205 22.7775 74.3543 22.7092 74.435 22.5944C74.5147 22.4797 74.5317 22.3328 74.4796 22.2036C71.8822 15.7396 67.4032 10.2177 61.5267 6.23338C55.5121 2.15604 48.4538 0 41.1161 0C33.7774 0 26.72 2.15604 20.7044 6.23338C14.8279 10.2177 10.3478 15.7396 7.75044 22.2036C7.69947 22.3328 7.71539 22.4797 7.7961 22.5944C7.8768 22.7092 8.0106 22.7775 8.15289 22.7775H13.0801Z" fill="#FCC200"/>
<path fill-rule="evenodd" clip-rule="evenodd" d="M42.0804 12.8518V8.16756C42.0804 7.92079 41.8839 7.72118 41.641 7.72118C31.6781 7.72118 22.4744 13.2368 17.6209 22.115C17.5453 22.2532 17.5475 22.421 17.6263 22.5581C17.7062 22.6941 17.8498 22.7775 18.0053 22.7775H23.4569C23.5973 22.7775 23.7301 22.7084 23.8133 22.5921C27.9433 16.7727 34.6075 13.2982 41.641 13.2982C41.8839 13.2982 42.0804 13.0986 42.0804 12.8518Z" fill="#FCC200"/>
<mask id="mask0_2909_21354" style="mask-type:alpha" maskUnits="userSpaceOnUse" x="7" y="49" width="68" height="23">
<path fill-rule="evenodd" clip-rule="evenodd" d="M7.72119 49.2225H74.5094V72H7.72119V49.2225Z" fill="white"/>
</mask>
<g mask="url(#mask0_2909_21354)">
<path fill-rule="evenodd" clip-rule="evenodd" d="M74.434 49.4056C74.3533 49.2908 74.2206 49.2225 74.0772 49.2225H69.1501C68.9813 49.2225 68.8283 49.3177 68.7583 49.4676C63.7971 59.9615 52.9468 66.7419 41.1143 66.7419C29.2828 66.7419 18.4324 59.9615 13.4724 49.4676C13.4012 49.3177 13.2483 49.2225 13.0795 49.2225H8.15341C8.01006 49.2225 7.87626 49.2908 7.79556 49.4056C7.71592 49.5203 7.69893 49.6672 7.75096 49.7964C10.3473 56.2594 14.8263 61.7825 20.7038 65.7668C26.7194 69.8442 33.7766 72.0002 41.1143 72.0002C48.4529 72.0002 55.5113 69.8442 61.5258 65.7668C67.4022 61.7825 71.8823 56.2594 74.4797 49.7964C74.5317 49.6672 74.5147 49.5203 74.434 49.4056Z" fill="#FCC200"/>
</g>
<path fill-rule="evenodd" clip-rule="evenodd" d="M40.9757 64.2788C50.9385 64.2788 60.1433 58.7632 64.9957 49.885C65.0713 49.7468 65.0691 49.5779 64.9903 49.4419C64.9115 49.3059 64.7679 49.2225 64.6113 49.2225H59.1608C59.0193 49.2225 58.8876 49.2916 58.8044 49.4068C54.6744 55.2273 48.0091 58.7018 40.9757 58.7018C40.7327 58.7018 40.5362 58.9014 40.5362 59.1482V63.8325C40.5362 64.0792 40.7327 64.2788 40.9757 64.2788Z" fill="#FCC200"/>
<path fill-rule="evenodd" clip-rule="evenodd" d="M45.6383 41.2914C45.4355 41.0854 45.1109 41.0756 44.8953 41.2687C43.754 42.2903 42.2817 42.8532 40.7507 42.8532C39.0724 42.8532 37.4966 42.1916 36.3136 40.9889C35.1307 39.7872 34.4784 38.1864 34.4784 36.4815C34.4784 34.7777 35.1307 33.1769 36.3136 31.9752C37.4966 30.7736 39.0724 30.1109 40.7507 30.1109C42.2817 30.1109 43.754 30.6738 44.8953 31.6965C45.1098 31.8895 45.4355 31.8787 45.6383 31.6726L48.0992 29.1728C48.2028 29.0665 48.2604 28.9212 48.2572 28.7715C48.254 28.6218 48.191 28.4787 48.0821 28.3778C46.0846 26.5081 43.4806 25.4799 40.7507 25.4799C37.8531 25.4799 35.1317 26.623 33.0883 28.6988C31.0448 30.7746 29.9196 33.5391 29.9196 36.4815C29.9196 39.4249 31.0448 42.1894 33.0883 44.2653C35.1317 46.3411 37.8531 47.4853 40.7507 47.4853C43.4806 47.4853 46.0846 46.455 48.0832 44.5874C48.191 44.4854 48.254 44.3423 48.2572 44.1926C48.2604 44.0429 48.2028 43.8976 48.0992 43.7913L45.6383 41.2914Z" fill="#2F3B40"/>
<path fill-rule="evenodd" clip-rule="evenodd" d="M8.83794 33.8712C6.8237 33.0848 5.60093 32.542 5.60093 31.6411C5.60093 30.7339 6.56136 30.0745 7.88196 30.0745C10.0685 30.0745 11.8071 31.535 11.8226 31.5487C11.9938 31.6957 12.2261 31.7587 12.454 31.723C12.6808 31.6862 12.8787 31.5518 12.9876 31.3586L14.5716 28.551C14.7239 28.2833 14.6761 27.9536 14.4549 27.7331C14.3638 27.6407 12.1472 25.4799 7.90975 25.4799C3.64227 25.4799 0.424154 28.151 0.424154 31.6957C0.424154 35.464 3.83013 36.851 6.56803 37.9661C8.64675 38.8113 9.90843 39.394 9.90843 40.3306C9.90843 41.8467 8.10317 41.9244 7.74078 41.9244C5.25967 41.9244 3.26988 40.1353 3.25209 40.1174C3.09536 39.9757 2.88193 39.9043 2.66516 39.9211C2.4484 39.9389 2.24942 40.0439 2.1227 40.2109L0.140693 42.8053C-0.0638438 43.0752 -0.0438348 43.4437 0.190715 43.6905C0.300765 43.806 2.93195 46.5201 7.68409 46.5201C9.86841 46.5201 11.7348 45.8817 13.0821 44.6785C14.3549 43.5382 15.0563 41.9664 15.0563 40.2508C15.0563 36.2998 11.4613 34.896 8.83794 33.8712Z" fill="#2F3B40"/>
<path fill-rule="evenodd" clip-rule="evenodd" d="M55.4142 25.4799H51.7172C51.2985 25.4799 50.9598 25.807 50.9598 26.2099V45.7912C50.9598 46.1941 51.2985 46.5201 51.7172 46.5201H55.4142C55.8328 46.5201 56.1716 46.1941 56.1716 45.7912V26.2099C56.1716 25.807 55.8328 25.4799 55.4142 25.4799Z" fill="#2F3B40"/>
<path fill-rule="evenodd" clip-rule="evenodd" d="M72.0104 42.0006H63.9224V26.2099C63.9224 25.8059 63.5817 25.4799 63.1607 25.4799H59.4426C59.0227 25.4799 58.6809 25.8059 58.6809 26.2099V45.7912C58.6809 46.1941 59.0227 46.5201 59.4426 46.5201H72.0104C72.4314 46.5201 72.7721 46.1941 72.7721 45.7912V42.7295C72.7721 42.3266 72.4314 42.0006 72.0104 42.0006Z" fill="#2F3B40"/>
<path fill-rule="evenodd" clip-rule="evenodd" d="M17.2652 37.8338H26.5525C26.9194 37.8338 27.2171 37.5124 27.2171 37.1187V34.1103C27.2171 33.7155 26.9194 33.3941 26.5525 33.3941H17.2652C16.8982 33.3941 16.6005 33.7155 16.6005 34.1092V37.1176C16.6005 37.5124 16.8982 37.8338 17.2652 37.8338Z" fill="#2F3B40"/>
<path fill-rule="evenodd" clip-rule="evenodd" d="M17.2652 29.7265H26.5525C26.9194 29.7265 27.2171 29.4052 27.2171 29.0104V26.003C27.2171 25.6072 26.9194 25.2869 26.5525 25.2869H17.2652C16.8982 25.2869 16.6005 25.6072 16.6005 26.002V29.0104C16.6005 29.4052 16.8982 29.7265 17.2652 29.7265Z" fill="#2F3B40"/>
<path fill-rule="evenodd" clip-rule="evenodd" d="M17.2652 46.7131H26.5525C26.9194 46.7131 27.2171 46.3918 27.2171 45.997V42.9896C27.2171 42.5938 26.9194 42.2735 26.5525 42.2735H17.2652C16.8982 42.2735 16.6005 42.5938 16.6005 42.9886V45.997C16.6005 46.3918 16.8982 46.7131 17.2652 46.7131Z" fill="#2F3B40"/>
</svg>
