<svg xmlns="http://www.w3.org/2000/svg" viewBox="0 0 595.3 136.1"><path d="M0 87.7h595.1v4.8H0zm.2-29.8h17.4V11.1l.3-.2 24.3 47h17.4l24.3-47h.3v47h17.4V1h-29L50.9 44.1h-.3L29.2 1H.2zm171.2-22H145l13-23.5h.3zm-58.3 22h18.8l7.9-13h36.7l7.8 13h20.1L168.8 1h-20.5zM232.5 10h6c9.1 0 19.2.6 19.2 7.4s-10.2 7.9-19.2 7.9h-6zm-18.1 47.9h18.1V34.3h5.8c7.6 0 10 1.6 12.6 5.9L261.8 58H282l-14.5-22.3c-1.8-2.5-4.7-5.6-9.6-5.9v-.2c11.5-1 18.7-6.5 18.7-13.2C276.5.6 253.4 1 233.9 1h-19.6v56.9zM366.8 2.4C359 .9 350.8 0 340.3 0c-30.7 0-49.6 10.9-49.6 30.4s20.3 28.5 49.6 28.5 19.7-1.3 29.3-2.9V25.3H333v9h19.2v14.8c-3.1.5-7 .8-11.9.8-19.3 0-30.7-8.7-30.7-20.3S321.3 9 342.4 9s16.3 1 23.3 3zm38.3 7.6h6c9.1 0 19.2.6 19.2 7.4s-10.2 7.9-19.2 7.9h-6zM387 57.9h18.1V34.3h5.8c7.6 0 10 1.6 12.6 5.9L434.4 58h20.2l-14.5-22.3c-1.8-2.5-4.7-5.6-9.6-5.9v-.2c11.5-1 18.6-6.5 18.6-13.2C449.2.6 426 1 406.6 1H387zm80.7 0h53.6v-9h-35.5V33H518v-9h-32.2V10H521V1h-53.4v56.9zM590 2c-6.6-1.4-13.9-2-21.6-2-15.9 0-31.6 4.7-31.6 17.4 0 18.8 39.6 14.4 39.6 25.2s-9.2 7.3-16.1 7.3-14.2-1.4-20.5-3.5l-1.7 10.3c8.9 1.4 13.3 2.2 23.2 2.2 18.3 0 33.9-4.7 33.9-17.2 0-19.1-39.6-14.9-39.6-24.8s8-7.9 14.2-7.9 12.7.9 18.4 2.4zM175.3 128.5h-12.6l6.3-9.2zm11.4 6.9L172.1 115h-5.4l-14.2 20.4h5.6l2.7-4h16.6l2.8 4zM121.1 124q-.75.45-1.8.6c-.8 0-1.6.2-2.7.2h-6.1v-6h6.9c.9 0 1.7 0 2.4.2.7 0 1.2.3 1.6.5s.7.5.9.9q.3.6.3 1.2c0 .6 0 1.1-.4 1.5-.2.3-.6.6-1.1.9m9.2 11.4c-.3-.2-.7-.7-1.3-1.4s-1.3-1.7-2.1-2.9c0-.2-.3-.4-.4-.5 0-.2-.2-.3-.3-.4-.2-.4-.5-.8-.9-1.1l-1.2-.9c-.5-.3-.9-.5-1.4-.7s-1-.4-1.6-.5c1.1 0 2.1-.3 2.9-.6.9-.3 1.6-.7 2.2-1.2s1.1-1.1 1.4-1.7.5-1.3.5-2.1-.2-2-.7-2.7c-.5-.8-1.2-1.4-2.1-1.9s-2.1-.9-3.5-1.1-3.1-.4-5-.4h-12.3v20.1h5.9v-7.5h3.4c.6 0 1.1 0 1.5.1.4 0 .8.1 1 .2.3.1.6.2.8.4.3.2.5.4.8.6.4.3.7.6 1.1 1.1.4.4.8.9 1.2 1.4q.6.75 1.2 1.8c.4.6.8 1.3 1.3 2.1h7.6zM24 131.6c-.8.2-1.6.5-2.4.6-.8.2-1.6.3-2.4.4s-1.6.1-2.3.1c-1.7 0-3.2-.2-4.5-.5s-2.5-.9-3.5-1.5c-1-.7-1.7-1.5-2.2-2.4s-.7-2-.7-3.1.2-2 .7-2.9c.5-.8 1.1-1.6 2-2.2s2-1.1 3.2-1.4 2.6-.5 4.1-.5h2.3c.8 0 1.5.2 2.3.3.8.2 1.6.3 2.4.6.8.2 1.6.5 2.4.8-.1-.2-.1-.5-.2-.7 0-.2-.1-.5-.1-.7s0-.5-.1-.7v-1.9c-.8-.3-1.6-.4-2.4-.5l-2.4-.3c-.8 0-1.6-.2-2.4-.2h-2.3c-2.4 0-4.5.2-6.5.7-1.9.5-3.6 1.2-4.9 2.1-1.4.9-2.4 2.1-3.1 3.3-.7 1.3-1 2.7-1 4.4s.1 1.5.3 2.2.4 1.4.8 2.1q.45 1.05 1.2 1.8c.5.6 1 1.1 1.7 1.5.7.5 1.5 1 2.4 1.4s1.8.7 2.8 1c1 .2 2.1.4 3.3.5s2.5.2 3.9.2 1.8 0 2.7-.1c.9 0 1.7-.1 2.5-.2s1.5-.2 2.3-.3c.7-.1 1.4-.3 2.1-.4v-.8c0-.3.1-.6.1-.9.1-.3.2-.7.3-1.1s.2-.9.4-1.4c-1.1.2-2 .5-2.8.7m37.5.4v-5.5h11.2v-3.4H61.5v-4.5h12.8v-3.3H55.6v20.1h19.5V132zm171.8-16.7-11.4 15.1-11.6-15.1h-6.2v20.1h5.5l-.2-14.4 11 14.4h2.5l10.9-14.4-.1 14.4h5.5v-20.1zm37.5 0h5.9v20.1h-5.9zm65.9 16.3c-.8.2-1.6.5-2.4.6-.8.2-1.6.3-2.4.4s-1.6.1-2.3.1c-1.7 0-3.2-.2-4.5-.5s-2.5-.9-3.5-1.5c-1-.7-1.7-1.5-2.2-2.4s-.7-2-.7-3.1.2-2 .7-2.9c.5-.8 1.1-1.6 2-2.2s2-1.1 3.2-1.4 2.6-.5 4.1-.5h2.3c.8 0 1.5.2 2.3.3.8.2 1.6.3 2.4.6.8.2 1.6.5 2.4.8-.1-.2-.1-.5-.2-.7 0-.2-.1-.5-.1-.7s0-.5-.1-.7v-1.9c-.8-.3-1.6-.4-2.4-.5l-2.4-.3c-.8 0-1.6-.2-2.4-.2h-2.3c-2.4 0-4.5.2-6.5.7-1.9.5-3.6 1.2-4.9 2.1-1.4.9-2.4 2.1-3.1 3.3s-1 2.7-1 4.4.1 1.5.3 2.2.4 1.4.8 2.1q.45 1.05 1.2 1.8c.5.6 1 1.1 1.7 1.5.7.5 1.5 1 2.4 1.4s1.8.7 2.8 1c1 .2 2.1.4 3.3.5s2.5.2 3.9.2 1.8 0 2.7-.1c.9 0 1.7-.1 2.5-.2s1.5-.2 2.3-.3c.7-.1 1.4-.3 2.1-.4v-.8c0-.3.1-.6.1-.9.1-.3.2-.7.3-1.1s.2-.9.4-1.4c-1.2.2-2 .5-2.8.7m63.3-16.3v3.5h9v16.6h5.9v-16.6h9v-3.5zm52.1 0h5.9v20.1h-5.9zm41.9 16.3v-16.3h-5.9v20.1h20v-3.8zm43.3.4v-5.5h11.1v-3.4h-11.1v-4.5h12.8v-3.3h-18.7v20.1h19.4V132zm57.5-4.6c-.3-.6-.9-1.2-1.5-1.6-.7-.4-1.6-.8-2.8-1.2-1.2-.3-2.7-.6-4.4-.9h-.2c-2.5-.4-4.4-.8-5.7-1.3s-1.9-1.1-1.9-1.8 0-.8.4-1.1c.2-.3.6-.6 1.1-.7.5-.2 1.1-.4 1.9-.5.8 0 1.6-.2 2.7-.2h2.4c.8 0 1.5.2 2.2.3.7 0 1.5.3 2.1.4.7.2 1.3.4 2 .6v-3.9c-.7 0-1.3-.3-2-.4s-1.4-.2-2-.3c-.6 0-1.3 0-1.9-.2h-1.9c-1.9 0-3.6 0-5.1.4s-2.7.7-3.7 1.2-1.8 1.2-2.3 1.9-.8 1.6-.8 2.6 0 .9.2 1.3c0 .4.3.8.6 1.2s.6.7 1 1 .9.6 1.4.8c.6.3 1.6.6 2.9.9q1.95.45 4.8.9h.4c1.8.3 3.1.7 4 1.1.9.5 1.3 1 1.3 1.6s0 .9-.4 1.3c-.3.4-.7.7-1.3.9q-.9.45-2.1.6c-1.2.15-1.8.2-2.9.2s-1.8-.1-2.7-.2-1.8-.2-2.6-.4c-.9-.2-1.7-.5-2.5-.7-.8-.3-1.5-.6-2.2-1 0 .3 0 .5.2.8 0 .3 0 .6.2 1v2.5c.7.2 1.4.4 2.2.5s1.6.3 2.4.4 1.7.2 2.6.2c.9.1 1.8.1 2.8.1 1.9 0 3.6-.1 5.1-.4s2.7-.7 3.7-1.2 1.8-1.2 2.3-2 .8-1.8.8-2.8c-.2-.5-.4-1.2-.7-1.9"/></svg>