<svg xmlns="http://www.w3.org/2000/svg" viewBox="0 0 131 56"><path d="m5.3 24.8 9.9-6.7L6.3 5.8l102 10.5 16.6 9.4-9.3 8.4H12l-6.7-9.2ZM0 2.1l11 15.2L1.1 24l9.4 13h106.2l13.2-12-20.7-11.7zm15 49.3v-9.9h1.2c.5 0 1 0 1.3.1.4 0 .8.2 1.1.4.4.2.6.5.8.8.2.4.3.8.3 1.4s0 .7-.3 1.1c-.2.4-.4.6-.8.8.6.1 1 .4 1.4.9s.6 1 .6 1.6c0 .9-.3 1.6-1 2.1s-1.5.7-2.4.7h-2.3Zm1.3-8.9v3.3h.3c.7 0 1.2-.1 1.6-.3s.5-.7.5-1.3-.2-1.1-.5-1.3q-.6-.3-1.5-.3h-.3Zm0 4.3v3.4h.9c1.5 0 2.3-.6 2.3-1.8s0-.6-.2-.8-.4-.4-.6-.5c-.3-.1-.5-.2-.8-.2h-1.7Zm5.6-1.6h1.2v3.4c0 .6.1 1 .3 1.4.2.3.6.5 1.1.5s.9-.2 1.1-.5.3-.8.3-1.4v-3.4h1.2v3.5q0 1.35-.6 2.1c-.4.5-1.1.8-1.9.8s-1.5-.3-1.9-.8q-.6-.75-.6-2.1v-3.5Zm8.3-2.8c0 .2 0 .4-.2.6s-.3.2-.6.2-.4 0-.6-.2-.2-.3-.2-.6 0-.4.2-.6.3-.2.6-.2.4 0 .6.2.2.4.2.6m-.2 9h-1.2v-6.2H30zm3.1-11.5h-1.2v11.4h1.2zm6.2 11.5v-1c-.2.4-.5.6-.9.9-.4.2-.7.3-1.2.3-.9 0-1.6-.3-2.1-1-.5-.6-.8-1.4-.8-2.4s.3-1.6.8-2.3c.5-.6 1.2-1 2.1-1s1.6.4 2.1 1.2v-6.3h1.2v11.4h-1.2Zm-1.9-.9c.6 0 1.1-.2 1.4-.6.4-.4.5-1 .5-1.6s-.2-1.1-.5-1.6c-.4-.4-.8-.6-1.4-.6s-1 .2-1.4.7c-.4.4-.5 1-.5 1.6s.2 1.1.5 1.6c.3.4.8.7 1.4.7Zm6.2-8.1c0 .2 0 .4-.2.6s-.3.2-.6.2-.4 0-.6-.2-.2-.3-.2-.6 0-.4.2-.6.3-.2.6-.2.4 0 .6.2.2.4.2.6m-.2 9h-1.2v-6.2h1.2zm3.1-6.2v.8c.2-.3.4-.6.8-.7.3-.2.7-.3 1.1-.3.8 0 1.4.2 1.7.7s.5 1.1.5 2v3.7h-1.2v-3.5c0-.6 0-1-.3-1.3-.2-.3-.5-.4-1.1-.4h-.6c-.2 0-.3.2-.4.3s-.2.3-.3.4c0 .1-.1.3-.1.5v3.9h-1.2v-6.2h1.2Zm11.3 0v6q0 1.8-.6 2.7c-.4.6-1.2.9-2.3.9s-1.6-.3-2.1-.7c-.5-.5-.8-1.2-.8-2h1.2c0 .5.2 1 .5 1.3s.8.5 1.3.5 1.1-.2 1.4-.6c.2-.4.4-1 .4-1.7v-1.2c-.2.4-.5.6-.9.9-.4.2-.7.3-1.2.3-.9 0-1.6-.3-2.1-1-.5-.6-.8-1.4-.8-2.4s.3-1.6.8-2.3c.5-.6 1.2-1 2.1-1s1.6.4 2.1 1.2V45H58Zm-3.1 5.3c.6 0 1.1-.2 1.4-.6.4-.4.5-1 .5-1.6s-.2-1.1-.5-1.6c-.4-.4-.8-.6-1.4-.6s-1 .2-1.4.7c-.4.4-.5 1-.5 1.6s.2 1.1.5 1.6c.3.4.8.7 1.4.7Zm9.7-4.2v5.1h-1.2v-5.1h-.6v-1.1h.6v-2.4h1.2v2.4h1.1v1.1zm2.1-.3c.6-.6 1.4-.9 2.3-.9s1.7.3 2.3.9.9 1.4.9 2.3-.3 1.7-.9 2.3-1.4.9-2.3.9-1.7-.3-2.3-.9-.9-1.4-.9-2.3.3-1.7.9-2.3m.3 2.3q0 .9.6 1.5t1.5.6c.9 0 1.1-.2 1.5-.6q.6-.6.6-1.5c0-.9-.2-1.1-.6-1.5q-.6-.6-1.5-.6c-.9 0-1.1.2-1.5.6q-.6.6-.6 1.5m12-3.1v6q0 1.8-.6 2.7c-.4.6-1.2.9-2.3.9s-1.6-.3-2.1-.7c-.5-.5-.8-1.2-.8-2h1.2c0 .5.2 1 .5 1.3s.8.5 1.3.5 1.1-.2 1.4-.6c.2-.4.4-1 .4-1.7v-1.2c-.2.4-.5.6-.9.9-.4.2-.7.3-1.2.3-.9 0-1.6-.3-2.1-1-.5-.6-.8-1.4-.8-2.4s.3-1.6.8-2.3c.5-.6 1.2-1 2.1-1s1.6.4 2.1 1.2V45H79Zm-3 5.3c.6 0 1.1-.2 1.4-.6.4-.4.5-1 .5-1.6s-.2-1.1-.5-1.6c-.4-.4-.8-.6-1.4-.6s-1 .2-1.4.7c-.4.4-.5 1-.5 1.6s.2 1.1.5 1.6c.3.4.8.7 1.4.7Zm9.9-2h-4.6c0 .6.2 1 .5 1.4s.8.6 1.3.6.8-.1 1-.3c.3-.2.5-.5.8-.9l1 .6q-.45.75-1.2 1.2c-.5.3-1 .4-1.6.4-.9 0-1.6-.3-2.2-.9-.5-.6-.8-1.4-.8-2.3s.3-1.8.8-2.4 1.2-.9 2.2-.9 1.6.3 2.1.9.7 1.4.7 2.4zm-4.6-.9h3.4c0-.5-.3-.8-.5-1.1-.3-.3-.7-.4-1.1-.4s-.8.1-1.1.4-.5.7-.6 1.1Zm6.9-1.3v5.1h-1.2v-5.1h-.6v-1.1h.6v-2.4H88v2.4h1.1v1.1zm1.8-6.4H91V46c.2-.3.4-.6.8-.7.3-.2.7-.3 1.1-.3.8 0 1.4.2 1.7.7s.5 1.1.5 2v3.7h-1.2v-3.5c0-.6 0-1-.3-1.3-.2-.3-.5-.4-1.1-.4h-.6c-.2 0-.3.2-.4.3s-.2.3-.3.4c0 .1-.1.3-.1.5v3.9h-1.2V39.9Zm12.1 8.6h-4.6c0 .6.2 1 .5 1.4s.8.6 1.3.6.8-.1 1-.3c.3-.2.5-.5.8-.9l1 .6q-.45.75-1.2 1.2c-.5.3-1 .4-1.6.4-.9 0-1.6-.3-2.2-.9-.5-.6-.8-1.4-.8-2.3s.3-1.8.8-2.4 1.2-.9 2.2-.9 1.6.3 2.1.9.7 1.4.7 2.4zm-4.5-.9h3.4c0-.5-.3-.8-.5-1.1-.3-.3-.7-.4-1.1-.4s-.8.1-1.1.4-.5.7-.6 1.1Zm6.8-2.4v1c.1-.4.4-.7.7-.9s.6-.3 1-.3.6.1 1 .3l-.5 1.1c-.2-.2-.4-.2-.7-.2s-.6 0-.8.2c-.2.1-.3.3-.4.5 0 .2-.2.5-.2.7v3.8h-1.2v-6.2h1.2Z"/><path d="M91 18.2c-1.2-.6-2.7-.8-4.1-.8-2.8 0-5.9 1.4-6.4 4.7-.4 2.4 1 3.1 2.3 3.5 1.4.4 2.8.4 2.7 1.5-.1.7-1 1-1.6 1-1.1 0-2.6-.7-3.4-1.3l-2.2 3.3c1.4 1 3.2 1.5 5 1.5 3 0 6.3-1.4 6.9-4.9.4-2.4-1.1-3.5-3.2-3.9-.6-.1-2-.3-1.9-1.2.1-.7 1.1-.9 1.6-.9.8 0 1.7.3 2.4.6l2-3Zm8.6 3.2c1.9 0 2.7 1.4 2.5 3-.3 1.7-1.5 2.9-3.4 2.9s-2.8-1.3-2.5-2.9 1.6-3 3.4-3m8-3.6H103l-.2 1.3c-.8-1.2-2.3-1.7-3.8-1.7-3.8 0-7 3.2-7.6 7s1.6 7 5.5 7 3.2-.6 4.2-1.9l-.2 1.5h4.6l2.1-13.1Zm-53.9 0h-4.6L47 30.9h4.6l1.1-6.8c.3-1.6 1-3.1 2.9-3.1s1.7 2.2 1.5 3.5l-1 6.4h4.6l1.3-8.1c.5-3.2-.5-5.5-4-5.5s-3.2.5-4.5 2.1l.3-1.7Zm18.6-.5c-4.2 0-8.2 2.5-8.9 7s2.6 7 6.7 7 8.2-2.5 8.9-7-2.5-7-6.7-7m-.6 4.1c1.9 0 2.7 1.4 2.5 3-.3 1.7-1.5 2.9-3.4 2.9S68 26 68.3 24.4s1.6-3 3.4-3m-32.8 0c1.9 0 2.7 1.4 2.5 3-.3 1.7-1.5 2.9-3.4 2.9s-2.8-1.3-2.5-2.9 1.6-3 3.4-3m7.9-3.6h-4.6l-.2 1.3c-.8-1.2-2.3-1.7-3.8-1.7-3.8 0-7 3.2-7.6 7s1.6 7 5.5 7 3.2-.6 4.2-1.9l-.2 1.5h4.6l2.1-13.1ZM23.4 30.9H28l3.3-21.3h-4.6L25.2 19c-.8-1.2-2.3-1.7-3.8-1.7-3.8 0-7 3.2-7.6 7s1.6 7 5.5 7 3.2-.6 4.2-1.9l-.2 1.5Zm-1.3-9.5c1.9 0 2.7 1.4 2.5 3-.3 1.7-1.5 2.9-3.4 2.9s-2.8-1.3-2.5-2.9 1.6-3 3.4-3"/></svg>