<svg xmlns="http://www.w3.org/2000/svg" width="133.694" height="39.981">
  <path d="M0 24.913C0 16.388 5.885 9.899 14.079 9.899c8.579 0 13.2 6.382 13.2 14.464v2.255H7.369c.55 4.4 3.245 7.039 7.039 7.039 2.97 0 5.335-1.43 6.216-4.235l6.489 2.31c-2.09 5.28-6.984 8.249-12.759 8.249C5.829 39.981 0 33.877 0 24.913zm7.645-3.52h11.988c-.055-2.86-1.869-5.335-5.61-5.335-3.082 0-5.444 1.811-6.378 5.335zM53.267 39.486H29.176v-5.664l14.686-16.83h-14.52v-6.433h23.76v5.719L38.913 33.052h14.354zM55.45 31.458c0-5.775 4.62-8.194 10.449-9.239l7.205-1.375v-.44c0-2.475-1.265-4.014-4.454-4.014-2.86 0-4.345 1.265-5 3.849l-7.315-1.374c1.32-4.9 5.719-8.855 12.6-8.855 7.314 0 11.714 3.354 11.714 10.064v11.824c0 1.54.659 2.035 2.365 1.814v5.775c-4.9.715-7.865-.275-9.13-2.695-1.87 2.035-4.784 3.189-8.579 3.189-5.672-.001-9.855-3.41-9.855-8.523zm17.655-5.222l-5.664 1.155c-2.53.5-4.4 1.32-4.4 3.63 0 1.98 1.484 3.135 3.794 3.135 3.245 0 6.269-1.7 6.269-4.949zM103.761 18.038a18.044 18.044 0 00-2.474-.166c-4.015 0-7.095 2.475-7.095 6.93v14.684h-7.7V10.559h7.7v4.069c1.266-2.53 4.125-4.235 7.7-4.235a17.174 17.174 0 011.87.11zM123.707 18.038a18.054 18.054 0 00-2.475-.166c-4.014 0-7.094 2.475-7.094 6.93v14.684h-7.7V10.559h7.7v4.069c1.265-2.53 4.125-4.235 7.7-4.235a17.182 17.182 0 011.87.11zM126.711 0h6.983v6.983h-6.983zM126.711 10.559h6.983v28.928h-6.983z"/>
</svg>
