<?xml version="1.0" encoding="UTF-8"?><svg id="Layer_2" xmlns="http://www.w3.org/2000/svg" viewBox="0 0 395.08 81.26"><defs><style>.cls-1{fill:#009391;}</style></defs><g id="Layer_1-2"><path d="m4.05,75.61c0-3.21,2.43-5.66,5.64-5.66,2.02,0,3.84,1.03,4.92,2.74l-1.72,1.23c-.74-1.21-1.8-1.95-3.2-1.95-2,0-3.4,1.5-3.4,3.63s1.46,3.63,3.45,3.63c1.35,0,2.41-.62,3.32-1.89l1.61,1.16c-1.06,1.78-2.94,2.75-4.93,2.75-3.2,0-5.7-2.44-5.7-5.66"/><polygon points="34.62 70.22 34.62 81.21 42.55 81.21 42.55 79.32 36.8 79.32 36.8 76.54 41.69 76.54 41.69 74.65 36.8 74.65 36.8 72.11 42.43 72.11 42.43 70.22 34.62 70.22"/><path d="m64.68,75.26h2.52c1.21,0,1.83-.74,1.83-1.57,0-.91-.62-1.63-1.83-1.63h-2.52v3.2Zm-2.19,5.88v-10.98h4.85c2.39,0,3.93,1.42,3.93,3.53,0,1.4-.77,2.55-2.05,3.1l2.48,4.36h-2.4l-2.24-4h-2.39v3.99h-2.19Z"/><path d="m97.33,72.39l1.92,4.81h-3.85l1.93-4.81Zm-1.26-2.28l-4.43,10.99h2.33l.82-2.15h5.1l.81,2.15h2.33l-4.44-10.99h-2.51Z"/><polygon points="132.35 70.06 128.81 77.37 125.27 70.06 122.95 70.06 122.95 81.05 125.14 81.05 125.14 74.31 128.1 80.31 129.52 80.31 132.48 74.31 132.48 81.05 134.66 81.05 134.66 70.06 132.35 70.06"/><rect x="154.6" y="70" width="2.19" height="10.99"/><path d="m176.72,75.61c0-3.21,2.43-5.66,5.64-5.66,2.02,0,3.84,1.03,4.92,2.74l-1.72,1.23c-.74-1.21-1.8-1.95-3.2-1.95-2,0-3.4,1.5-3.4,3.63s1.46,3.63,3.46,3.63c1.35,0,2.41-.62,3.32-1.89l1.61,1.16c-1.06,1.78-2.94,2.75-4.93,2.75-3.2,0-5.7-2.44-5.7-5.66"/><polygon points="225.86 70.11 225.86 72.05 229.3 72.05 229.3 81.1 231.47 81.1 231.47 72.05 234.9 72.05 234.9 70.11 225.86 70.11"/><rect x="256.13" y="70.11" width="2.19" height="10.99"/><polygon points="279.55 70.11 279.55 81.1 287.65 81.1 287.65 79.21 281.74 79.21 281.74 70.11 279.55 70.11"/><polygon points="308.88 70.11 308.88 81.1 316.81 81.1 316.81 79.21 311.06 79.21 311.06 76.43 315.95 76.43 315.95 74.54 311.06 74.54 311.06 72.01 316.69 72.01 316.69 70.11 308.88 70.11"/><path d="m339.65,77.5c.52,1.06,1.5,1.79,2.82,1.79,1.05,0,1.88-.51,1.88-1.22s-.82-1.12-2.13-1.53c-2.11-.66-3.83-1.31-3.83-3.43s2.03-3.16,3.89-3.16c1.99,0,3.37,1.16,4.06,2.39l-1.68,1.2c-.48-.8-1.27-1.61-2.44-1.61-.85,0-1.6.45-1.6,1.17,0,.88.8,1.01,2.18,1.5,2.06.73,3.78,1.29,3.78,3.45s-2.18,3.21-4.14,3.21c-2.12,0-3.75-1.11-4.41-2.6l1.61-1.16Z"/><path d="m26.09,21.85v8.48h17.1c-1.9,7.67-8.85,13.37-17.1,13.37-9.93,0-17.96-8.25-17.6-18.26.32-9.07,7.81-16.59,16.88-16.96,4.97-.2,9.68,1.65,13.18,5.14l6-6C39.04,2.14,31.51-.6,23.64.11,11.44,1.22,1.48,11.01.16,23.19c-1.7,15.68,10.59,28.99,25.94,28.99,6.78,0,12.97-2.6,17.61-6.86v6.39s8.48,0,8.48,0v-29.87h-26.09Z"/><polygon points="116.37 .52 116.37 51.66 150.69 51.66 150.69 43.35 124.68 43.35 124.68 29.74 148.01 29.74 148.01 21.43 124.68 21.43 124.68 8.83 150.69 8.83 150.69 .52 116.37 .52"/><path d="m223.49,29.97l6.92-20.27,6.92,20.27h-13.84Zm21.27,21.75h8.78L236.06.52h-11.3l-17.48,51.2h8.78l4.59-13.44h19.52l4.59,13.44Z"/><path d="m193.75,25.95c-3.28-2.46-7.69-4.05-12.43-4.48-3.57-.32-6.43-.67-8.09-1.92-1.38-1.04-2.03-2.43-2.03-4.36,0-3.76,3.94-6.71,9.4-6.71,2.92,0,5.39.86,7.37,2.35,1.42,1.07,2.31,2.39,2.52,3.73l8.55-1.28c-.51-3.56-2.77-6.64-5.96-9.05-3.47-2.62-7.35-3.89-12.14-3.89s-9.29,1.3-12.64,3.96c-3.6,2.86-5.58,6.62-5.58,10.89,0,4.62,1.87,8.46,5.4,11.13,3.73,2.81,8.56,3.24,12.44,3.59,3.14.28,6.1,1.31,8.1,2.81.96.72,2.56,2.23,2.56,4.32,0,6.18-7.87,6.66-10.28,6.66-2.92,0-5.74-.85-7.72-2.34-.96-.72-2.56-2.23-2.56-4.32h0v-.96h-8.48v.96c0,4.22,2.17,8.26,5.95,11.1,3.47,2.61,8.02,4.04,12.81,4.04,11.22,0,18.76-6.08,18.76-15.14,0-4.22-2.17-8.26-5.95-11.1"/><polygon points="333.21 51.74 333.19 9.17 350.28 9.17 350.28 .52 307.45 .52 307.45 9.17 324.54 9.17 324.53 51.74 333.21 51.74"/><path d="m93.72,16.32c0,4.74-3.22,7.57-8.6,7.57h-10.48v-15.07h10.48c2.81,0,4.99.69,6.48,2.05,1.41,1.29,2.12,3.12,2.12,5.45m-.38,14.4c6.14-2.46,9.48-7.79,9.48-14.4,0-9.59-6.63-15.79-17.33-15.79h-19.33v51.12h8.5v-19.55h9.15l11.26,19.55h10.52l-12.26-20.94Z"/><path d="m291.18,16.32c0,4.74-3.21,7.57-8.6,7.57h-10.48v-15.07h10.48c2.81,0,4.99.69,6.48,2.05,1.41,1.29,2.12,3.12,2.12,5.45m-.38,14.4c6.14-2.46,9.48-7.79,9.48-14.4,0-9.59-6.63-15.79-17.33-15.79h-19.33v51.12h8.5v-19.55h9.15l11.26,19.55h10.52l-12.26-20.94Z"/><path class="cls-1" d="m353.1,51.66h13.38v-13.38h-13.38v13.38Zm17.63-17.63h24.35V9.68h-24.35v24.35Z"/></g></svg>