<?xml version="1.0" encoding="UTF-8"?>
<svg id="Layer_1" xmlns="http://www.w3.org/2000/svg" version="1.1" viewBox="0 0 566.9 227.6">
  <!-- Generator: Adobe Illustrator 30.1.0, SVG Export Plug-In . SVG Version: 2.1.1 Build 136)  -->
  <g id="Layer_2">
    <g id="Layer_1-2">
      <path d="M0,217.1c0,6.1,3.9,10.5,9.9,10.5s9.1-3.4,9.8-8.8l-5.7-.7c-.4,2.9-1.8,4.5-4.1,4.5s-4.2-2.1-4.2-6v-4.9c0-3.9,1.4-6,4.2-6s3.6,1.5,4.1,4.5l5.7-.7c-.7-5.4-4.4-8.8-9.8-8.8S0,204.9,0,211.1v6ZM49.6,227.2h17v-5.1h-11.2v-5.8h9.6v-5.1h-9.7v-5.1h11.2v-5.1h-16.9v26.1ZM105.4,217.8l4.7,9.3h6.4l-5.7-10.2c2.9-1.3,4.7-4.3,4.5-7.5,0-5.9-4.4-8.4-8.8-8.4h-9.9v26.1h5.7v-9.3h3ZM109.6,209.5c0,2.4-1.6,3.3-3.7,3.3h-3.5v-6.6h3.5c2.1,0,3.7.9,3.7,3.3M158.7,222.3l1.4,4.8h6l-8.5-26.1h-6l-8.5,26.1h6l1.4-4.8h8.1ZM152,217.6l2.7-9.2,2.7,9.2h-5.4ZM204.9,220.8h4l4.3-8.1v14.5h5.8v-26.1h-4.8l-7.2,13.5-7.2-13.5h-4.8v26.1h5.7v-14.5l4.2,8.1ZM256,201.1h-5.7v26.1h5.7v-26.1ZM286.6,217.1c0,6.1,3.9,10.5,9.9,10.5s9.1-3.4,9.8-8.8l-5.7-.7c-.5,2.9-1.8,4.5-4.1,4.5s-4.2-2.1-4.2-6v-4.9c0-3.9,1.4-6,4.2-6s3.6,1.5,4.1,4.5l5.7-.7c-.7-5.4-4.4-8.8-9.8-8.8s-9.9,4.4-9.9,10.5v6ZM370,206.1h6.7v21h5.7v-21h6.7v-5.1h-19.1v5.1ZM424.1,201h-5.7v26.1h5.7v-26.1ZM455.5,227.1h17v-5.1h-11.2v-21h-5.7v26.1ZM501.5,227.1h16.9v-5.1h-11.2v-5.7h9.7v-5.1h-9.7v-5.1h11.2v-5.1h-16.9v26ZM566.9,219.5c0-4.2-2.4-6.8-7.5-7.8l-2.1-.4c-2.3-.5-3.4-1.5-3.4-2.9,0-1.5,1.2-2.7,2.7-2.7.1,0,.2,0,.3,0,1.9,0,3.6,1.3,3.9,3.2l5.5-.7c-.9-4.8-4.5-7.6-9.4-7.6s-8.8,3.7-8.8,7.8,2.6,6.8,7.6,7.8l2,.4c2.4.5,3.4,1.4,3.4,3s-1.4,2.8-3.5,2.8c-2.3,0-4.3-1.5-4.7-3.8l-5.5.7c.9,4.9,5.3,8.3,10.2,8.1,5.8,0,9.2-3.2,9.2-8"/>
      <path d="M200.3,68.4c-3-.1-5.8,1.5-7.2,4.2-2-3.8-6.8-5.3-10.6-3.3-2.5,1.3-4.1,3.9-4.2,6.8,0,4.1,2.5,6.8,6.5,10.8h0c4.1,4.1,6.4,7.2,7.4,10.1l.9,2.6.9-2.5c1-2.9,3.3-6,7.4-10.1s6.5-6.7,6.5-10.8c0-4.2-3.4-7.7-7.6-7.7"/>
      <path d="M251,80.6c.2,32-25.6,58.2-57.6,58.4-32,.2-58.2-25.6-58.4-57.6-.2-32,25.6-58.2,57.6-58.4,0,0,0,0,0,0h.3c31.9,0,57.8,25.7,57.9,57.6M193.1,0c-44.5,0-80.5,36.1-80.5,80.6s36.1,80.5,80.6,80.5c44.5,0,80.5-36.1,80.5-80.5S237.6,0,193.2,0c0,0,0,0,0,0"/>
      <polygon points=".2 4.9 0 160.1 0 161.1 105.3 161.1 105.3 138.2 23.5 138.2 23.7 4.9 .2 4.9"/>
      <polygon points="362 129.5 314.5 4.9 289.9 4.9 349.3 161.1 375 161.1 434.1 4.9 409.5 4.9 362 129.5"/>
      <polygon points="461.1 4.9 461.1 161.1 566.4 161.1 566.4 138.1 484.1 138.1 484.1 94.5 555.9 94.5 555.9 71.5 484.1 71.5 484.1 27.9 566.4 27.9 566.4 4.9 461.1 4.9"/>
    </g>
  </g>
</svg>