<?xml version="1.0" encoding="UTF-8"?>
<svg xmlns="http://www.w3.org/2000/svg" xmlns:xlink="http://www.w3.org/1999/xlink" width="220px" height="70px" viewBox="0 0 217 70" version="1.1">
<g id="surface1">
<path style=" stroke:none;fill-rule:nonzero;fill:rgb(0%,0%,0%);fill-opacity:1;" d="M 128.335938 58.609375 C 128.335938 61.539062 130.332031 63.253906 132.953125 63.253906 C 135.550781 63.253906 137.5625 61.53125 137.5625 58.609375 C 137.5625 55.675781 135.550781 53.960938 132.953125 53.960938 C 130.332031 53.960938 128.335938 55.675781 128.335938 58.609375 M 136.179688 58.609375 C 136.179688 60.777344 134.886719 62.222656 132.945312 62.222656 C 131 62.222656 129.710938 60.769531 129.710938 58.609375 C 129.710938 56.4375 131 54.992188 132.945312 54.992188 C 134.886719 54.992188 136.179688 56.4375 136.179688 58.609375 M 118.863281 55.117188 C 120.40625 55.117188 120.9375 55.859375 120.9375 56.996094 C 120.9375 58.160156 120.40625 58.886719 118.863281 58.886719 L 116.746094 58.886719 L 116.746094 55.117188 Z M 115.4375 54.101562 L 115.4375 63.097656 L 116.753906 63.097656 L 116.753906 59.894531 L 119.113281 59.894531 C 121.398438 59.894531 122.269531 58.722656 122.269531 56.996094 C 122.269531 55.300781 121.398438 54.101562 119.113281 54.101562 Z M 100.777344 59.210938 C 100.777344 62.109375 102.320312 63.226562 104.5625 63.226562 C 106.792969 63.226562 108.335938 62.109375 108.335938 59.210938 L 108.335938 54.101562 L 107.035156 54.101562 L 107.035156 59.210938 C 107.035156 61.433594 106.070312 62.222656 104.5625 62.222656 C 103.042969 62.222656 102.078125 61.433594 102.078125 59.210938 L 102.078125 54.101562 L 100.777344 54.101562 Z M 90.453125 55.117188 C 91.976562 55.117188 92.527344 55.765625 92.527344 56.777344 C 92.527344 57.765625 91.984375 58.433594 90.453125 58.433594 L 88.332031 58.433594 L 88.332031 55.117188 Z M 87.027344 54.101562 L 87.027344 63.097656 L 88.34375 63.097656 L 88.34375 59.414062 L 90.617188 59.414062 L 92.960938 63.097656 L 94.375 63.097656 L 91.863281 59.28125 C 93.273438 58.964844 93.859375 58.019531 93.859375 56.789062 C 93.859375 55.222656 92.980469 54.101562 90.703125 54.101562 Z M 73.753906 58.625 C 73.753906 56.402344 75.199219 54.976562 77.265625 54.976562 C 78.164062 54.976562 79.113281 55.265625 79.628906 55.5625 L 79.828125 54.574219 C 79.289062 54.277344 78.355469 53.960938 77.171875 53.960938 C 74.425781 53.960938 72.367188 55.683594 72.367188 58.609375 C 72.367188 61.546875 74.449219 63.253906 77.195312 63.253906 C 78.582031 63.253906 79.425781 62.914062 79.96875 62.578125 L 79.96875 58.34375 L 78.757812 58.34375 L 78.757812 61.949219 C 78.382812 62.109375 77.839844 62.246094 77.300781 62.246094 C 75.242188 62.246094 73.753906 60.847656 73.753906 58.625 "/>
<path style=" stroke:none;fill-rule:nonzero;fill:rgb(0%,0%,0%);fill-opacity:1;" d="M 50.222656 28.910156 L 41.132812 28.910156 L 45.527344 17.324219 Z M 56.890625 37.144531 L 47.617188 14 L 43.425781 14 L 34.164062 37.144531 L 37.65625 37.144531 L 40.191406 31.378906 L 51.140625 31.378906 L 53.429688 37.144531 Z M 56.890625 37.144531 "/>
<path style=" stroke:none;fill-rule:nonzero;fill:rgb(0%,0%,0%);fill-opacity:1;" d="M 67.128906 14 L 63.636719 14 L 72.5 37.144531 L 76.691406 37.144531 L 85.511719 14 L 82.058594 14 L 74.589844 33.820312 Z M 67.128906 14 "/>
<path style=" stroke:none;fill-rule:nonzero;fill:rgb(0%,0%,0%);fill-opacity:1;" d="M 94.652344 14 L 98.035156 14 L 98.035156 37.144531 L 94.652344 37.144531 Z M 94.652344 14 "/>
<path style=" stroke:none;fill-rule:nonzero;fill:rgb(0%,0%,0%);fill-opacity:1;" d="M 111.246094 25.628906 C 111.246094 19.90625 114.957031 16.25 120.292969 16.25 C 122.609375 16.25 125.03125 16.984375 126.355469 17.761719 L 126.871094 15.214844 C 125.476562 14.445312 123.089844 13.632812 120.039062 13.632812 C 112.980469 13.632812 107.679688 18.058594 107.679688 25.59375 C 107.679688 33.164062 113.050781 37.554688 120.109375 37.554688 C 123.671875 37.554688 125.84375 36.671875 127.238281 35.824219 L 127.238281 25.128906 L 124.117188 25.128906 L 124.117188 34.1875 C 123.160156 34.589844 121.765625 34.964844 120.359375 34.964844 C 115.070312 34.964844 111.246094 31.351562 111.246094 25.628906 "/>
<path style=" stroke:none;fill-rule:nonzero;fill:rgb(0%,0%,0%);fill-opacity:1;" d="M 151.71875 20.894531 C 151.71875 23.441406 150.324219 25.148438 146.382812 25.148438 L 140.9375 25.148438 L 140.9375 16.617188 L 146.382812 16.617188 C 150.324219 16.617188 151.71875 18.277344 151.71875 20.894531 M 155.132812 20.894531 C 155.132812 16.871094 152.859375 13.992188 147.011719 13.992188 L 137.5625 13.992188 L 137.5625 37.136719 L 140.945312 37.136719 L 140.945312 27.648438 L 146.792969 27.648438 L 152.824219 37.136719 L 156.457031 37.136719 L 149.992188 27.316406 C 153.625 26.511719 155.132812 24.078125 155.132812 20.894531 "/>
<path style=" stroke:none;fill-rule:nonzero;fill:rgb(0%,0%,0%);fill-opacity:1;" d="M 168.9375 26.320312 L 180.265625 26.320312 L 180.265625 23.738281 L 168.9375 23.738281 L 168.9375 16.617188 L 181.660156 16.617188 L 181.660156 14 L 165.566406 14 L 165.566406 37.144531 L 181.660156 37.144531 L 181.660156 34.527344 L 168.9375 34.527344 Z M 168.9375 26.320312 "/>
<path style=" stroke:none;fill-rule:nonzero;fill:rgb(0%,0%,0%);fill-opacity:1;" d="M 190.253906 35.777344 C 192.164062 36.882812 194.996094 37.511719 197.828125 37.511719 C 202.5 37.511719 207.023438 35.628906 207.023438 30.90625 C 207.023438 22.925781 194.078125 25.367188 194.078125 19.792969 C 194.078125 17.359375 196.546875 16.355469 199.300781 16.355469 C 201.46875 16.355469 204.039062 16.949219 205.695312 17.9375 L 206.246094 15.390625 C 204.40625 14.324219 201.652344 13.660156 198.933594 13.660156 C 194.699219 13.660156 190.628906 15.425781 190.628906 20.039062 C 190.628906 28.167969 203.570312 25.875 203.570312 31.113281 C 203.570312 33.695312 200.738281 34.84375 197.574219 34.84375 C 195.222656 34.84375 192.652344 34.292969 190.777344 33.214844 Z M 190.253906 35.777344 "/>
<path style=" stroke:none;fill-rule:nonzero;fill:rgb(100%,21.176471%,0%);fill-opacity:1;" d="M 174.054688 5.589844 L 171.5625 10.605469 L 174.347656 10.605469 L 177.285156 5.589844 Z M 174.054688 5.589844 "/>
<path style=" stroke:none;fill-rule:nonzero;fill:rgb(0%,0%,0%);fill-opacity:1;" d="M 12.742188 26.320312 L 12.742188 16.617188 L 18.1875 16.617188 C 22.160156 16.617188 23.519531 18.53125 23.519531 21.453125 C 23.519531 24.449219 22.160156 26.328125 18.1875 26.328125 M 26.9375 21.453125 C 26.9375 17.097656 24.699219 14 18.816406 14 L 9.359375 14 L 9.359375 26.003906 L 1.691406 26.003906 L 1.691406 28.585938 L 9.359375 28.585938 L 9.359375 37.144531 L 12.742188 37.144531 L 12.742188 28.910156 L 18.808594 28.910156 C 24.699219 28.910156 26.9375 25.882812 26.9375 21.453125 "/>
<path style=" stroke:none;fill-rule:nonzero;fill:rgb(0%,0%,0%);fill-opacity:1;" d="M 214.160156 16.125 C 214.160156 15.609375 213.863281 15.269531 213.042969 15.269531 L 212.015625 15.269531 L 212.015625 18.226562 L 212.519531 18.226562 L 212.519531 17 L 213.027344 17 L 213.75 18.226562 L 214.261719 18.226562 L 213.515625 16.941406 C 213.957031 16.859375 214.160156 16.527344 214.160156 16.125 M 213.644531 16.136719 C 213.644531 16.40625 213.488281 16.589844 213.042969 16.589844 L 212.511719 16.589844 L 212.511719 15.671875 L 213.042969 15.671875 C 213.488281 15.679688 213.644531 15.871094 213.644531 16.136719 "/>
<path style=" stroke:none;fill-rule:nonzero;fill:rgb(0%,0%,0%);fill-opacity:1;" d="M 216.078125 13.683594 L 210.035156 13.683594 L 210.035156 19.773438 L 216.078125 19.773438 Z M 215.519531 19.222656 L 210.578125 19.222656 L 210.578125 14.234375 L 215.519531 14.234375 Z M 215.519531 19.222656 "/>
</g>
</svg>
