<svg id="logo-tercocer" xmlns="http://www.w3.org/2000/svg" width="291.4" height="31.1" viewBox="0 0 291.4 31.1">
  <path id="XMLID_13_" d="M36.5.3V30.7H59.3V27.8H40.5V16.5h18V13.6h-18V3.2H59.3V.3Z" fill="#ef7b20"/>
  <g id="XMLID_69_">
    <path id="XMLID_76_" d="M75.7,15.5H87.3c3.1,0,5.1-.4,6.3-1.2,1.1-.8,1.7-2.3,1.7-4.5,0-2.8-.4-4.5-1.2-5.4-.8-.8-2.6-1.2-5.3-1.2h-13V15.5Zm-4,15.2V.3H88.6c3.8,0,6.5.6,8.1,1.9S99,5.7,99,8.9c0,2.8-.4,4.8-1.3,5.9s-2.5,1.8-4.9,2.2v.1c3.8.2,5.7,2.2,5.7,5.9v7.8h-4v-7c0-3.6-1.8-5.3-5.4-5.3H75.7V30.8h-4Z" fill="#1d1d1b"/>
    <path id="XMLID_10_" d="M135.5,20.6h4v1.2c0,4.1-.8,6.7-2.5,7.8-1.6,1-5.8,1.5-12.5,1.5q-9,0-11.4-2.7t-2.4-12.9a61.992,61.992,0,0,1,.5-10,6.23,6.23,0,0,1,3.1-3.6c2-1.2,6.4-1.9,13.1-1.9,4.5,0,7.6.6,9.2,1.8s2.4,3.5,2.4,7v.8h-4V8.7c0-2.5-.5-4-1.4-4.7s-3-1.1-6.3-1.1q-8.55,0-10.5,1.2c-1.3.8-1.9,3.1-1.9,6.8,0,8.5.4,13.6,1.3,15,.9,1.5,3.8,2.2,8.7,2.2,4.7,0,7.7-.3,8.9-1q1.8-.9,1.8-4.8Z" fill="#1d1d1b"/>
    <path id="XMLID_72_" d="M164.2,2.9c-5.6,0-8.9.5-9.9,1.6s-1.4,4.7-1.4,11,.5,10,1.4,11c1,1.1,4.3,1.6,9.9,1.6,5.7,0,9-.5,9.9-1.6,1-1.1,1.4-4.7,1.4-11V10.6c0-3.4-.7-5.5-2-6.4-1.3-.8-4.4-1.3-9.3-1.3m0-2.9c6.7,0,10.9.8,12.6,2.5s2.5,5.9,2.5,12.6c0,7.2-.8,11.7-2.4,13.4S171,31,164.2,31s-11.1-.8-12.7-2.5-2.5-6-2.5-13v-5c0-4,1.1-6.8,3.2-8.3,2.2-1.5,6.2-2.2,12-2.2" fill="#1d1d1b"/>
    <path id="XMLID_7_" d="M214.5,20.6h4v1.2c0,4.1-.8,6.7-2.5,7.8-1.6,1-5.8,1.5-12.5,1.5q-9,0-11.4-2.7t-2.4-12.9a61.992,61.992,0,0,1,.5-10,6.23,6.23,0,0,1,3.1-3.6c2-1.2,6.4-1.9,13.1-1.9,4.5,0,7.6.6,9.2,1.8s2.4,3.5,2.4,7v.8h-4V8.7c0-2.5-.5-4-1.4-4.7s-3-1.1-6.3-1.1q-8.55,0-10.5,1.2c-1.3.8-1.9,3.1-1.9,6.8,0,8.5.4,13.6,1.3,15,.9,1.5,3.8,2.2,8.7,2.2,4.7,0,7.7-.3,8.9-1q1.8-.9,1.8-4.8Z" fill="#1d1d1b"/>
  </g>
  <path id="XMLID_5_" d="M228.8.3V30.7h22.9V27.8H232.8V16.5h18.1V13.6H232.8V3.2h18.9V.3Z" fill="#ef7b20"/>
  <g id="XMLID_63_">
    <path id="XMLID_65_" d="M268.1,15.5h11.6c3.1,0,5.1-.4,6.3-1.2,1.1-.8,1.7-2.3,1.7-4.5,0-2.8-.4-4.5-1.2-5.4-.8-.8-2.6-1.2-5.3-1.2h-13V15.5Zm-4,15.2V.3H281c3.8,0,6.5.6,8.1,1.9s2.3,3.5,2.3,6.7c0,2.8-.4,4.8-1.3,5.9s-2.5,1.8-4.9,2.2v.1c3.8.2,5.7,2.2,5.7,5.9v7.8h-4v-7c0-3.6-1.8-5.3-5.4-5.3H268.1V30.8h-4Z" fill="#1d1d1b"/>
  </g>
  <path id="XMLID_1_" d="M0,.3V3.5H11.6V30.7h4V3.5H27.1V.3Z" fill="#1d1d1b"/>
</svg>
