<?xml version="1.0" encoding="UTF-8"?>
<svg id="Layer_1" xmlns="http://www.w3.org/2000/svg" version="1.1" viewBox="0 0 595.3 136.1">
  <!-- Generator: Adobe Illustrator 30.1.0, SVG Export Plug-In . SVG Version: 2.1.1 Build 136)  -->
  <rect y="87.7" width="595.1" height="4.8"/>
  <path d="M.2,57.9h17.4V11.1l.3-.2,24.3,47h17.4l24.3-47h.3v47h17.4V1h-29l-21.7,43.1h-.3L29.2,1H.2s0,56.9,0,56.9ZM171.4,35.9h-26.4l13-23.5h.3l13.1,23.5ZM113.1,57.9h18.8l7.9-13h36.7l7.8,13h20.1L168.8,1h-20.5l-35.2,56.9ZM232.5,10h6c9.1,0,19.2.6,19.2,7.4s-10.2,7.9-19.2,7.9h-6v-15.3h0ZM214.4,57.9h18.1v-23.6h5.8c7.6,0,10,1.6,12.6,5.9l10.9,17.8h20.2l-14.5-22.3c-1.8-2.5-4.7-5.6-9.6-5.9v-.2c11.5-1,18.7-6.5,18.7-13.2-.1-15.8-23.2-15.4-42.7-15.4h-19.6v56.9h.1ZM366.8,2.4c-7.8-1.5-16-2.4-26.5-2.4-30.7,0-49.6,10.9-49.6,30.4s20.3,28.5,49.6,28.5,19.7-1.3,29.3-2.9v-30.7h-36.6v9h19.2v14.8c-3.1.5-7,.8-11.9.8-19.3,0-30.7-8.7-30.7-20.3s11.7-20.6,32.8-20.6,16.3,1,23.3,3l1.1-9.6ZM405.1,10h6c9.1,0,19.2.6,19.2,7.4s-10.2,7.9-19.2,7.9h-6v-15.3ZM387,57.9h18.1v-23.6h5.8c7.6,0,10,1.6,12.6,5.9l10.9,17.8h20.2l-14.5-22.3c-1.8-2.5-4.7-5.6-9.6-5.9v-.2c11.5-1,18.6-6.5,18.6-13.2.1-15.8-23.1-15.4-42.5-15.4h-19.6v56.9ZM467.7,57.9h53.6v-9h-35.5v-15.9h32.2v-9h-32.2v-14h35.2V1h-53.4v56.9h.1ZM590,2c-6.6-1.4-13.9-2-21.6-2-15.9,0-31.6,4.7-31.6,17.4,0,18.8,39.6,14.4,39.6,25.2s-9.2,7.3-16.1,7.3-14.2-1.4-20.5-3.5l-1.7,10.3c8.9,1.4,13.3,2.2,23.2,2.2,18.3,0,33.9-4.7,33.9-17.2,0-19.1-39.6-14.9-39.6-24.8s8-7.9,14.2-7.9,12.7.9,18.4,2.4l1.8-9.4Z"/>
  <path d="M175.3,128.5h-12.6l6.3-9.2,6.3,9.2ZM186.7,135.4l-14.6-20.4h-5.4l-14.2,20.4h5.6l2.7-4h16.6l2.8,4h6.5Z"/>
  <path d="M121.1,124c-.5.3-1.1.5-1.8.6-.8,0-1.6.2-2.7.2h-6.1v-6h6.9c.9,0,1.7,0,2.4.2.7,0,1.2.3,1.6.5s.7.5.9.9c.2.4.3.8.3,1.2,0,.6,0,1.1-.4,1.5-.2.3-.6.6-1.1.9M130.3,135.4c-.3-.2-.7-.7-1.3-1.4s-1.3-1.7-2.1-2.9c0-.2-.3-.4-.4-.5,0-.2-.2-.3-.3-.4-.2-.4-.5-.8-.9-1.1s-.8-.6-1.2-.9c-.5-.3-.9-.5-1.4-.7s-1-.4-1.6-.5c1.1,0,2.1-.3,2.9-.6.9-.3,1.6-.7,2.2-1.2s1.1-1.1,1.4-1.7.5-1.3.5-2.1-.2-2-.7-2.7c-.5-.8-1.2-1.4-2.1-1.9s-2.1-.9-3.5-1.1-3.1-.4-5-.4h-12.3v20.1h5.9v-7.5h3.4c.6,0,1.1,0,1.5.1.4,0,.8.1,1,.2.3.1.6.2.8.4.3.2.5.4.8.6.4.3.7.6,1.1,1.1.4.4.8.9,1.2,1.4.4.5.8,1.1,1.2,1.8.4.6.8,1.3,1.3,2.1h7.6v-.2Z"/>
  <path d="M24,131.6c-.8.2-1.6.5-2.4.6-.8.2-1.6.3-2.4.4-.8.1-1.6.1-2.3.1-1.7,0-3.2-.2-4.5-.5s-2.5-.9-3.5-1.5c-1-.7-1.7-1.5-2.2-2.4-.5-.9-.7-2-.7-3.1s.2-2,.7-2.9c.5-.8,1.1-1.6,2-2.2.9-.6,2-1.1,3.2-1.4s2.6-.5,4.1-.5,1.5,0,2.3,0,1.5.2,2.3.3c.8.2,1.6.3,2.4.6.8.2,1.6.5,2.4.8-.1-.2-.1-.5-.2-.7,0-.2-.1-.5-.1-.7s0-.5-.1-.7v-1.5h0v-.4h0c-.8-.3-1.6-.4-2.4-.5s-1.6-.2-2.4-.3c-.8,0-1.6-.2-2.4-.2-.8,0-1.6,0-2.3,0-2.4,0-4.5.2-6.5.7-1.9.5-3.6,1.2-4.9,2.1-1.4.9-2.4,2.1-3.1,3.3C.3,122.3,0,123.7,0,125.4s.1,1.5.3,2.2c.2.7.4,1.4.8,2.1.3.7.7,1.3,1.2,1.8.5.6,1,1.1,1.7,1.5.7.5,1.5,1,2.4,1.4.9.4,1.8.7,2.8,1,1,.2,2.1.4,3.3.5,1.2.1,2.5.2,3.9.2s1.8,0,2.7-.1c.9,0,1.7-.1,2.5-.2.8-.1,1.5-.2,2.3-.3.7-.1,1.4-.3,2.1-.4v-.8c0-.3.1-.6.1-.9.1-.3.2-.7.3-1.1.1-.4.2-.9.4-1.4-1.1.2-2,.5-2.8.7"/>
  <polygon points="61.5 132 61.5 126.5 72.7 126.5 72.7 123.1 61.5 123.1 61.5 118.6 74.3 118.6 74.3 115.3 55.6 115.3 55.6 135.4 75.1 135.4 75.1 132 61.5 132"/>
  <polygon points="233.3 115.3 221.9 130.4 210.3 115.3 204.1 115.3 204.1 135.4 209.6 135.4 209.4 121 220.4 135.4 222.9 135.4 233.8 121 233.7 135.4 239.2 135.4 239.2 115.3 233.3 115.3"/>
  <rect x="270.8" y="115.3" width="5.9" height="20.1"/>
  <path d="M336.7,131.6c-.8.2-1.6.5-2.4.6-.8.2-1.6.3-2.4.4-.8.1-1.6.1-2.3.1-1.7,0-3.2-.2-4.5-.5s-2.5-.9-3.5-1.5c-1-.7-1.7-1.5-2.2-2.4-.5-.9-.7-2-.7-3.1s.2-2,.7-2.9c.5-.8,1.1-1.6,2-2.2s2-1.1,3.2-1.4,2.6-.5,4.1-.5,1.5,0,2.3,0,1.5.2,2.3.3c.8.2,1.6.3,2.4.6.8.2,1.6.5,2.4.8-.1-.2-.1-.5-.2-.7,0-.2-.1-.5-.1-.7s0-.5-.1-.7v-1.5h0v-.4h0c-.8-.3-1.6-.4-2.4-.5s-1.6-.2-2.4-.3c-.8,0-1.6-.2-2.4-.2-.8,0-1.6,0-2.3,0-2.4,0-4.5.2-6.5.7-1.9.5-3.6,1.2-4.9,2.1-1.4.9-2.4,2.1-3.1,3.3s-1,2.7-1,4.4.1,1.5.3,2.2c.2.7.4,1.4.8,2.1.3.7.7,1.3,1.2,1.8.5.6,1,1.1,1.7,1.5.7.5,1.5,1,2.4,1.4s1.8.7,2.8,1c1,.2,2.1.4,3.3.5,1.2.1,2.5.2,3.9.2s1.8,0,2.7-.1c.9,0,1.7-.1,2.5-.2.8-.1,1.5-.2,2.3-.3.7-.1,1.4-.3,2.1-.4v-.8c0-.3.1-.6.1-.9.1-.3.2-.7.3-1.1.1-.4.2-.9.4-1.4-1.2.2-2,.5-2.8.7"/>
  <polygon points="400 115.3 400 118.8 409 118.8 409 135.4 414.9 135.4 414.9 118.8 423.9 118.8 423.9 115.3 400 115.3"/>
  <rect x="452.1" y="115.3" width="5.9" height="20.1"/>
  <polygon points="494 131.6 494 115.3 488.1 115.3 488.1 135.4 508.1 135.4 508.1 131.6 494 131.6"/>
  <polygon points="537.3 132 537.3 126.5 548.4 126.5 548.4 123.1 537.3 123.1 537.3 118.6 550.1 118.6 550.1 115.3 531.4 115.3 531.4 135.4 550.8 135.4 550.8 132 537.3 132"/>
  <path d="M594.8,127.4c-.3-.6-.9-1.2-1.5-1.6-.7-.4-1.6-.8-2.8-1.2-1.2-.3-2.7-.6-4.4-.9h-.2c-2.5-.4-4.4-.8-5.7-1.3s-1.9-1.1-1.9-1.8,0-.8.4-1.1c.2-.3.6-.6,1.1-.7.5-.2,1.1-.4,1.9-.5.8,0,1.6-.2,2.7-.2s1.6,0,2.4,0c.8,0,1.5.2,2.2.3.7,0,1.5.3,2.1.4.7.2,1.3.4,2,.6,0-.3,0-.6,0-.9s0-.6,0-1,0-.7,0-1v-1h0c-.7,0-1.3-.3-2-.4s-1.4-.2-2-.3c-.6,0-1.3,0-1.9-.2-.6,0-1.3,0-1.9,0-1.9,0-3.6,0-5.1.4s-2.7.7-3.7,1.2-1.8,1.2-2.3,1.9c-.5.7-.8,1.6-.8,2.6s0,.9.2,1.3c0,.4.3.8.6,1.2.3.4.6.7,1,1s.9.6,1.4.8c.6.3,1.6.6,2.9.9,1.3.3,2.9.6,4.8.9h.4c1.8.3,3.1.7,4,1.1.9.5,1.3,1,1.3,1.6s0,.9-.4,1.3c-.3.4-.7.7-1.3.9-.6.3-1.3.5-2.1.6s-1.8.2-2.9.2-1.8-.1-2.7-.2c-.9-.1-1.8-.2-2.6-.4-.9-.2-1.7-.5-2.5-.7-.8-.3-1.5-.6-2.2-1,0,.3,0,.5.2.8,0,.3,0,.6.2,1,0,.3,0,.7,0,1.1s0,.9,0,1.4c.7.2,1.4.4,2.2.5s1.6.3,2.4.4c.8.1,1.7.2,2.6.2.9.1,1.8.1,2.8.1,1.9,0,3.6-.1,5.1-.4,1.5-.3,2.7-.7,3.7-1.2s1.8-1.2,2.3-2,.8-1.8.8-2.8c-.2-.5-.4-1.2-.7-1.9"/>
</svg>