<?xml version="1.0" encoding="UTF-8"?>
<svg id="Layer_1" data-name="Layer 1" xmlns="http://www.w3.org/2000/svg" viewBox="0 0 731.37 758.69">
  <defs>
    <style>
      .cls-1 {
        stroke: #000;
        stroke-miterlimit: 10;
      }

      .cls-1, .cls-2 {
        fill: #000;
      }

      .cls-2 {
        stroke-width: 0px;
      }
    </style>
  </defs>
  <g>
    <polygon class="cls-1" points="690.8 688.63 724.7 631.03 718.1 631.03 687.1 684.13 656.2 631.03 649.2 631.03 683.7 688.83 644.7 756.93 651.5 756.93 687.1 693.23 723.7 756.93 730.5 756.93 690.8 688.63"/>
    <path class="cls-1" d="M449.5,631.23h5v120.2h69.3v5h-74.3v-125.2h0Z"/>
    <path class="cls-1" d="M454.4,751.93v-120.8h-5v125.7h74.6v-5h-69.6v.1Z"/>
    <path class="cls-1" d="M354.9,636.63h65.3c-12.7,34.8-25.1,68.8-37.8,103.9-.7-1.9-31-85.4-39.7-109.4h-6.4c15,40.9,31.4,85.9,46.1,126.1,15.2-41.9,30.5-83.7,45.9-126h-73.3v5.4h-.1Z"/>
    <path class="cls-1" d="M626.5,631.03h-67.9v5h62.6c0,26,.2,51.3,0,76.7,0,5.7-1.4,11.5-2.9,17-3.2,11.6-10.6,19.8-22.5,22.2h-21.7c-11.8-2.3-19.2-10.6-22.3-22.1-1.5-5.5-2.8-11.3-2.9-17-.3-24.9,0-81.7,0-81.7h-5.3c0,1-.2,56.1.5,82.7.2,7,2,14.3,4.2,21,4.1,12.4,13,19.7,25.9,22l21.7.2h0c13-2.3,22-9.7,26.2-22.2,2.2-6.8,4.1-14,4.2-21,.7-26.6.6-81.7.5-82.7h-.1l-.2-.1h0Z"/>
    <path class="cls-1" d="M93.1,631.03h-5.9c-.5.6-7.6,15.6-10.5,21.9-9.8,21-19.6,41.9-29.8,63.8-1.3-2.6-39.9-85-40.7-85.7H.9c-.1,6-.3,66.1-.4,106.9h0v18.8h5.8v-112.9c13.4,28.5,26.7,56.9,40.5,86.4,13.8-29.4,27.1-57.7,40.3-86v107H15.7v5.6h77.5v-125.9h-.1v.1h0Z"/>
    <path class="cls-1" d="M207.9,693.93c0,47.9-17,63-40.8,63s-41.1-14.1-41.1-63.2,20-62.5,41.4-62.5,40.5,15.1,40.5,62.7h0ZM131.3,693.73c0,43.8,14.4,59.1,35.5,59.1s35.8-19.7,35.8-58.8-10.46-58.42-35.63-57.71c-23.69.68-33.72,13.37-35.67,57.41h0Z"/>
    <path class="cls-1" d="M318.4,693.93c0,47.9-17,63-40.8,63s-41.1-14.1-41.1-63.2,20-62.5,41.4-62.5,40.5,15.1,40.5,62.7h0ZM241.8,693.73c0,43.8,14.4,59.1,35.5,59.1s35.8-19.7,35.8-58.8-11-58.33-34.97-57.93c-23.11.38-34.73,12.16-36.33,57.63h0Z"/>
  </g>
  <g>
    <rect class="cls-2" x="226.34" y="87.53" width="17.29" height="378"/>
    <rect class="cls-2" x="487.27" y="87.53" width="17.29" height="378"/>
    <rect class="cls-2" x="306.06" y="448.09" width="181.21" height="17.45"/>
    <polygon class="cls-2" points="268.41 163.4 285.89 163.4 366.53 343.86 446.54 163.4 464.02 163.38 366.53 385.91 268.41 163.4"/>
    <path class="cls-2" d="M592.04,553.57H138.96V0h453.07v553.57h0ZM155.26,537.27h420.46V16.31H155.26v520.96h0Z"/>
  </g>
</svg>